<?xml version="1.0" encoding="UTF-8"?>
<svg id="Ebene_2" data-name="Ebene 2"
  xmlns="http://www.w3.org/2000/svg" version="1.1" viewBox="0 0 959.1 1587.2">
  <defs>
    <style>
      .cls-1, .cls-2 {
        fill: #808e99;
      }

      .cls-1, .cls-2, .cls-3, .cls-4, .cls-5, .cls-6, .cls-7, .cls-8, .cls-9 {
        stroke-width: 0px;
      }

      .cls-2 {
        opacity: .7;
      }

      .cls-2, .cls-10 {
        isolation: isolate;
      }

      .cls-3 {
        fill: #fafbfc;
      }

      .cls-11, .cls-12, .cls-13, .cls-14, .cls-15 {
        fill: none;
      }

      .cls-11, .cls-13, .cls-14, .cls-15 {
        stroke-linecap: round;
      }

      .cls-11, .cls-14 {
        stroke: #f5c663;
        stroke-width: 5.7px;
      }

      .cls-11, .cls-14, .cls-16 {
        stroke-miterlimit: 10;
      }

      .cls-4 {
        fill: #008187;
      }

      .cls-5 {
        fill: #9898f9;
      }

      .cls-6 {
        fill: #000;
      }

      .cls-12 {
        stroke-miterlimit: 66.7;
      }

      .cls-12, .cls-13, .cls-15 {
        stroke: #fff;
      }

      .cls-12, .cls-15 {
        stroke-width: 5.1px;
      }

      .cls-13 {
        stroke-width: 4px;
      }

      .cls-13, .cls-15 {
        stroke-linejoin: round;
      }

      .cls-14 {
        stroke-dasharray: 0 0 0 0 0 0 10.6 10.6;
      }

      .cls-16 {
        fill: #f4f4f4;
        stroke: #f1f3f4;
      }

      .cls-7 {
        fill: #5cbbff;
      }

      .cls-8 {
        fill: #fff;
      }

      .cls-9 {
        fill: #008087;
      }
    </style>
  </defs>
  <g id="Pro-Mobile">
    <path id="Rectangle-Copy-2" class="cls-16" d="M.5,420.3h956.1v942.7H.5V420.3Z"/>
    <g>
      <path id="Rectangle-4" class="cls-2" d="M588,1402h210v185.2h-210v-185.2Z"/>
      <g>
        <path class="cls-8" d="M637.1,1464.3c-1.1-.6-1.9-1.4-2.6-2.4,0,0,0-.2,0-.4,0-.2,0-.4.3-.6l1.4-1.1c.1,0,.2-.1.3-.1.2,0,.3,0,.5.3.5.7,1,1.2,1.7,1.6.7.4,1.3.6,1.9.6s1.2-.2,1.7-.5.9-.7,1.2-1.3c.3-.5.5-1.1.5-1.8s-.3-1.7-.9-2.3c-.6-.7-1.3-1-2.2-1.1l-.7,1c0,.2-.2.2-.4.2s-.2,0-.3-.1l-1.5-1.1c-.2,0-.2-.2-.2-.4s0-.2,0-.3l3.7-5.2h-5.1c-.2,0-.3,0-.4-.2s-.2-.2-.2-.4v-1.8c0-.2,0-.3.2-.4,0,0,.2-.2.4-.2h7.5c.5,0,.9.2,1.2.5s.5.7.5,1.2-.1.7-.4,1l-2.6,3.6c1.3.4,2.3,1.2,3.1,2.2s1.2,2.3,1.2,3.7-.3,2.2-.9,3.2c-.6,1-1.4,1.8-2.3,2.3s-2.1.9-3.2.9-2.3-.3-3.4-.9h0Z"/>
        <path class="cls-8" d="M649.7,1464.7c0,0-.2-.2-.2-.4v-1.9c0-.2,0-.3.2-.4,0,0,.2-.2.4-.2h1.9v-8.8h-2.2c-.2,0-.3,0-.4-.2s-.2-.2-.2-.4v-1.8c0-.2,0-.3.2-.4s.2-.2.4-.2h4c.3,0,.6.1.8.3.2.2.3.5.3.8v.9l1.4-1.1c.5-.4,1-.7,1.3-.8.4-.2.8-.2,1.3-.2h.8c.2,0,.3,0,.4.2s.2.2.2.4v2c0,.2,0,.3-.2.4,0,0-.2.2-.4.2h-.7c-.4,0-.8,0-1.2.2-.3.2-.8.5-1.5,1l-1.4,1.1v6.4h2.5c.2,0,.3,0,.4.2s.2.2.2.4v1.9c0,.2,0,.3-.2.4,0,0-.2.2-.4.2h-7.4c-.2,0-.3,0-.4-.2h0Z"/>
        <path class="cls-8" d="M665,1464.4c-.9-.5-1.6-1.2-2.1-2.2s-.8-1.9-.8-2.9v-3.5c0-1,.2-2,.8-2.9.5-.9,1.2-1.6,2.1-2.2.9-.5,1.8-.8,2.8-.8s1.3,0,1.9.3c.6.2,1.1.5,1.6.9v-5.2c0-.2,0-.3.2-.4,0,0,.2-.2.4-.2h2c.2,0,.3,0,.4.2s.2.2.2.4v18.5c0,.2,0,.3-.2.4,0,0-.2.2-.4.2h-1.7c-.2,0-.3,0-.4-.2s-.2-.2-.2-.4v-1.2c-.5.7-1,1.2-1.7,1.6-.7.3-1.4.5-2.1.5s-1.9-.3-2.8-.8h0ZM670.3,1461.3c.6-.6.9-1.3.9-2.1v-3.4c0-.8-.3-1.5-.9-2.1-.6-.6-1.3-.9-2.1-.9s-1.5.3-2.1.9-.9,1.3-.9,2.1v3.4c0,.8.3,1.5.9,2.1s1.3.9,2.1.9,1.5-.3,2.1-.9Z"/>
        <path class="cls-8" d="M684.9,1464.7c0,0-.2-.2-.2-.4v-16.6c0-.3.1-.6.3-.8.2-.2.5-.3.8-.3h4.5c1.1,0,2.1.3,3,.8s1.6,1.2,2.2,2.1.8,1.9.8,2.9-.3,2.1-.8,3c-.5.9-1.3,1.6-2.2,2.1-.9.5-1.9.8-3,.8h-2.5v5.9c0,.2,0,.3-.2.4,0,0-.2.2-.4.2h-2c-.2,0-.3,0-.4-.2h0ZM690.2,1455.4c.8,0,1.5-.3,2.1-.9s.9-1.3.9-2.1-.3-1.5-.9-2.1-1.3-.9-2.1-.9h-2.4v5.9h2.4Z"/>
        <path class="cls-8" d="M699.4,1464c-.9-.8-1.3-1.9-1.3-3.2s.4-2.2,1.2-2.9,2-1.3,3.4-1.5c.4,0,.7,0,1.1-.2,1.2-.1,1.9-.2,2.2-.3.6,0,.9-.5.9-1.1s-.3-1.1-.8-1.5c-.5-.4-1.2-.6-2-.6-1.4,0-2.4.5-3,1.5-.1.2-.3.3-.5.3s-.2,0-.3,0l-1.4-1c-.2,0-.2-.2-.2-.4s0-.1,0-.2c.5-.9,1.2-1.7,2.2-2.2s2.1-.8,3.3-.8,2.1.2,3,.6c.8.4,1.5,1,2,1.8s.7,1.7.7,2.7v9.2c0,.2,0,.3-.2.4,0,0-.2.2-.4.2h-1.7c-.2,0-.3,0-.4-.1s-.2-.2-.2-.4v-1c-1.2,1.2-2.6,1.9-4.2,1.9s-2.6-.4-3.5-1.2h0ZM705,1461.9c.6-.3,1.1-.8,1.4-1.3.4-.6.5-1.1.5-1.8v-.5l-1.9.3c-1,.1-1.7.2-2,.3-1.4.2-2.1.9-2.1,1.8s.2.9.6,1.3.9.5,1.6.5,1.3-.2,1.9-.5h0Z"/>
        <path class="cls-8" d="M713.1,1464.7c0,0-.2-.2-.2-.4v-1.9c0-.2,0-.3.2-.4,0,0,.2-.2.4-.2h1.9v-8.8h-2.2c-.2,0-.3,0-.4-.2s-.2-.2-.2-.4v-1.8c0-.2,0-.3.2-.4s.2-.2.4-.2h4c.3,0,.6.1.8.3.2.2.3.5.3.8v.9l1.4-1.1c.5-.4,1-.7,1.3-.8.4-.2.8-.2,1.3-.2h.8c.2,0,.3,0,.4.2s.2.2.2.4v2c0,.2,0,.3-.2.4,0,0-.2.2-.4.2h-.7c-.4,0-.8,0-1.2.2-.3.2-.8.5-1.5,1l-1.4,1.1v6.4h2.5c.2,0,.3,0,.4.2s.2.2.2.4v1.9c0,.2,0,.3-.2.4,0,0-.2.2-.4.2h-7.4c-.2,0-.3,0-.4-.2h0Z"/>
        <path class="cls-8" d="M729.2,1463.6c-.8-.8-1.2-1.9-1.2-3.2v-7.3h-1.8c-.2,0-.3,0-.4-.2s-.2-.2-.2-.4v-1.8c0-.2,0-.3.2-.4s.2-.2.4-.2h1.8v-2.8c0-.2,0-.3.2-.4s.2-.2.4-.2h2c.2,0,.3,0,.4.2s.2.2.2.4v2.8h4.3c.2,0,.3,0,.4.2s.2.2.2.4v1.8c0,.2,0,.3-.2.4,0,0-.2.2-.4.2h-4.3v7.2c0,.5.2.9.5,1.2.3.3.7.5,1.2.5h2.7c.2,0,.3,0,.4.2s.2.2.2.4v1.8c0,.2,0,.3-.2.4,0,0-.2.2-.4.2h-2.9c-1.3,0-2.4-.4-3.2-1.2h0Z"/>
        <path class="cls-8" d="M741.9,1469.5c0-.1-.1-.3,0-.5l1.3-3.8-5-14.2c0,0,0-.2,0-.2,0-.2,0-.3.2-.4s.3-.2.5-.2h1.8c.2,0,.3,0,.5.2s.2.2.3.4l3.4,10.2,3.4-10.2c0-.2.2-.3.3-.4s.3-.2.5-.2h1.7c.2,0,.3,0,.5.2s.2.2.2.4,0,.1,0,.2l-6.4,18.2c0,.2-.2.3-.3.4s-.3.2-.5.2h-1.7c-.2,0-.3,0-.4-.2h0Z"/>
        <path class="cls-8" d="M602.9,1498.3c-1-.6-1.8-1.4-2.4-2.4-.6-1-.9-2.2-.9-3.4v-5.4c0-1.2.3-2.3.9-3.4s1.4-1.8,2.4-2.4c1-.6,2.1-.9,3.3-.9s2,.2,2.9.6,1.7.9,2.3,1.7c0,.1.2.3.2.4s0,.3-.2.5l-1.1,1.2c-.1.1-.3.2-.4.2s-.3,0-.5-.2c-.8-.9-1.9-1.3-3.1-1.3s-1.2.2-1.8.5-1,.8-1.3,1.4c-.3.6-.5,1.2-.5,1.9v5.4c0,.7.2,1.3.5,1.9s.8,1,1.3,1.4,1.1.5,1.8.5c1.3,0,2.3-.4,3.1-1.3.1-.2.3-.2.4-.2s.3,0,.4.2l1.1,1.2c.2.2.2.3.2.5s0,.3-.2.4c-.7.7-1.4,1.3-2.3,1.7s-1.9.6-2.9.6-2.3-.3-3.3-.9h0Z"/>
        <path class="cls-8" d="M617.2,1498.4c-.9-.5-1.7-1.3-2.2-2.2s-.8-1.9-.8-3v-3.3c0-1.1.3-2.1.8-3,.5-.9,1.3-1.6,2.2-2.2s1.9-.8,3-.8,2.1.3,3,.8c.9.5,1.7,1.3,2.2,2.2.5.9.8,1.9.8,3v3.3c0,1.1-.3,2.1-.8,3-.5.9-1.3,1.6-2.2,2.2s-1.9.8-3,.8-2.1-.3-3-.8ZM622.4,1495.3c.6-.6.9-1.3.9-2.1v-3.3c0-.8-.3-1.5-.9-2.1s-1.3-.9-2.1-.9-1.5.3-2.1.9-.9,1.3-.9,2.1v3.3c0,.8.3,1.5.9,2.1s1.3.9,2.1.9,1.5-.3,2.1-.9Z"/>
        <path class="cls-8" d="M629.9,1498.7c0,0-.2-.2-.2-.4v-13.5c0-.2,0-.3.2-.4s.2-.2.4-.2h2c.2,0,.3,0,.4.2s.2.2.2.4v1.2c.5-.7,1-1.2,1.7-1.5.7-.4,1.4-.6,2.2-.6s1.8.2,2.6.7,1.4,1.1,1.8,1.9c.4.8.7,1.7.7,2.8v9.1c0,.2,0,.3-.2.4,0,0-.2.2-.4.2h-2c-.2,0-.3,0-.4-.2s-.2-.2-.2-.4v-8.7c0-.9-.2-1.6-.7-2.1-.5-.5-1.1-.7-1.9-.7s-1.8.3-2.4,1c-.6.7-.9,1.6-.9,2.7v7.8c0,.2,0,.3-.2.4,0,0-.2.2-.4.2h-2c-.2,0-.3,0-.4-.2h0Z"/>
        <path class="cls-8" d="M647.8,1497.6c-.8-.8-1.2-1.9-1.2-3.2v-7.3h-1.8c-.2,0-.3,0-.4-.2s-.2-.2-.2-.4v-1.8c0-.2,0-.3.2-.4s.2-.2.4-.2h1.8v-2.8c0-.2,0-.3.2-.4s.2-.2.4-.2h2c.2,0,.3,0,.4.2s.2.2.2.4v2.8h4.3c.2,0,.3,0,.4.2s.2.2.2.4v1.8c0,.2,0,.3-.2.4,0,0-.2.2-.4.2h-4.3v7.2c0,.5.2.9.5,1.2.3.3.7.5,1.2.5h2.7c.2,0,.3,0,.4.2s.2.2.2.4v1.8c0,.2,0,.3-.2.4,0,0-.2.2-.4.2h-2.9c-1.3,0-2.4-.4-3.2-1.2h0Z"/>
        <path class="cls-8" d="M658,1498c-.9-.8-1.3-1.9-1.3-3.2s.4-2.2,1.2-2.9,2-1.3,3.4-1.5c.4,0,.7,0,1.1-.2,1.2-.1,1.9-.2,2.2-.3.6,0,.9-.5.9-1.1s-.3-1.1-.8-1.5c-.5-.4-1.2-.6-2-.6-1.4,0-2.4.5-3,1.5-.1.2-.3.3-.5.3s-.2,0-.3,0l-1.4-1c-.2,0-.2-.2-.2-.4s0-.1,0-.2c.5-.9,1.2-1.7,2.2-2.2s2.1-.8,3.3-.8,2.1.2,3,.6c.8.4,1.5,1,2,1.8s.7,1.7.7,2.7v9.2c0,.2,0,.3-.2.4,0,0-.2.2-.4.2h-1.7c-.2,0-.3,0-.4-.1s-.2-.2-.2-.4v-1c-1.2,1.2-2.6,1.9-4.2,1.9s-2.6-.4-3.5-1.2h0ZM663.6,1495.9c.6-.3,1.1-.8,1.4-1.3.4-.6.5-1.1.5-1.8v-.5l-1.9.3c-1,.1-1.7.2-2,.3-1.4.2-2.1.9-2.1,1.8s.2.9.6,1.3.9.5,1.6.5,1.3-.2,1.9-.5h0Z"/>
        <path class="cls-8" d="M674.8,1498.3c-.9-.5-1.7-1.3-2.2-2.2s-.8-2-.8-3.1v-3.1c0-1.1.3-2.1.8-3.1s1.3-1.7,2.2-2.2c.9-.5,1.9-.8,3-.8s1.7.2,2.5.5,1.5.8,2,1.5c.1.1.2.2.2.4s0,.4-.2.5l-1.1,1.1c-.1.1-.3.2-.4.2s-.3,0-.4-.2c-.7-.7-1.5-1-2.5-1s-1.5.3-2.1.9-.9,1.3-.9,2.1v3.3c0,.8.3,1.5.9,2.1s1.3.9,2.1.9,1.8-.3,2.5-1c.1-.2.3-.2.4-.2s.3,0,.4.2l1.1,1.1c.2.2.2.3.2.5s0,.3-.2.4c-.6.6-1.2,1.1-2,1.5s-1.6.5-2.5.5-2.1-.3-3-.8h0Z"/>
        <path class="cls-8" d="M688.2,1497.6c-.8-.8-1.2-1.9-1.2-3.2v-7.3h-1.8c-.2,0-.3,0-.4-.2s-.2-.2-.2-.4v-1.8c0-.2,0-.3.2-.4s.2-.2.4-.2h1.8v-2.8c0-.2,0-.3.2-.4s.2-.2.4-.2h2c.2,0,.3,0,.4.2s.2.2.2.4v2.8h4.3c.2,0,.3,0,.4.2s.2.2.2.4v1.8c0,.2,0,.3-.2.4,0,0-.2.2-.4.2h-4.3v7.2c0,.5.2.9.5,1.2.3.3.7.5,1.2.5h2.7c.2,0,.3,0,.4.2s.2.2.2.4v1.8c0,.2,0,.3-.2.4,0,0-.2.2-.4.2h-2.9c-1.3,0-2.4-.4-3.2-1.2h0Z"/>
        <path class="cls-8" d="M706.4,1498.7c-.9-.3-1.7-.7-2.5-1.2,0,0-.1-.1-.2-.3,0-.1,0-.2,0-.3l.9-1.6c0-.2.3-.3.5-.3s.3,0,.4,0c1.3.8,2.5,1.2,3.6,1.2s1.6-.2,2.1-.7.8-1,.8-1.7-.1-.8-.4-1.2-.6-.6-1-.8-1-.5-1.9-.8l-.7-.3c-1.2-.5-2.1-1.1-2.9-1.9s-1.2-1.9-1.2-3.4.2-1.9.7-2.8c.5-.8,1.1-1.4,2-1.9s1.8-.7,2.9-.7,1.8.2,2.7.4c.9.3,1.7.7,2.4,1.2,0,0,.1.1.2.3,0,.1,0,.2,0,.3l-.8,1.6c0,.2-.3.3-.5.3s-.3,0-.4,0c-.7-.4-1.3-.7-1.9-.9-.6-.2-1.1-.3-1.6-.3-.8,0-1.4.2-1.8.6-.4.4-.7.9-.7,1.6s.2,1.2.7,1.6,1.3.9,2.3,1.3c.2,0,.7.3,1.8.7,1,.4,1.8,1,2.4,1.8.6.8.9,1.7.9,2.8s-.2,2-.8,2.8-1.2,1.5-2.1,1.9-1.9.7-3.1.7-1.8-.2-2.7-.4h0Z"/>
        <path class="cls-8" d="M721,1498.4c-.9-.5-1.7-1.3-2.2-2.2s-.8-1.9-.8-3v-3.3c0-1.1.3-2.1.8-3,.5-.9,1.3-1.6,2.2-2.2s1.9-.8,3-.8,2.1.3,3,.8c.9.5,1.7,1.3,2.2,2.2.5.9.8,1.9.8,3v3.3c0,1.1-.3,2.1-.8,3-.5.9-1.3,1.6-2.2,2.2s-1.9.8-3,.8-2.1-.3-3-.8ZM726.1,1495.3c.6-.6.9-1.3.9-2.1v-3.3c0-.8-.3-1.5-.9-2.1s-1.3-.9-2.1-.9-1.5.3-2.1.9-.9,1.3-.9,2.1v3.3c0,.8.3,1.5.9,2.1s1.3.9,2.1.9,1.5-.3,2.1-.9Z"/>
        <path class="cls-8" d="M735.9,1498.5c-.8-.5-1.4-1.1-1.8-1.9-.4-.8-.7-1.7-.7-2.8v-9.1c0-.2,0-.3.2-.4,0,0,.2-.2.4-.2h2c.2,0,.3,0,.4.2s.2.2.2.4v8.7c0,.9.2,1.6.7,2.1s1.1.7,1.9.7,1.8-.3,2.4-1,.9-1.6.9-2.7v-7.8c0-.2,0-.3.2-.4s.2-.2.4-.2h2c.2,0,.3,0,.4.2s.2.2.2.4v13.5c0,.2,0,.3-.2.4,0,0-.2.2-.4.2h-2c-.2,0-.3,0-.4-.2s-.2-.2-.2-.4v-1.2c-.5.7-1,1.2-1.7,1.5s-1.4.6-2.2.6-1.8-.2-2.6-.7h0Z"/>
        <path class="cls-8" d="M749,1498.7c0,0-.2-.2-.2-.4v-1.9c0-.2,0-.3.2-.4,0,0,.2-.2.4-.2h1.9v-8.8h-2.2c-.2,0-.3,0-.4-.2s-.2-.2-.2-.4v-1.8c0-.2,0-.3.2-.4s.2-.2.4-.2h4c.3,0,.6.1.8.3.2.2.3.5.3.8v.9l1.4-1.1c.5-.4,1-.7,1.3-.8.4-.2.8-.2,1.3-.2h.8c.2,0,.3,0,.4.2s.2.2.2.4v2c0,.2,0,.3-.2.4,0,0-.2.2-.4.2h-.7c-.4,0-.8,0-1.2.2-.3.2-.8.5-1.5,1l-1.4,1.1v6.4h2.5c.2,0,.3,0,.4.2s.2.2.2.4v1.9c0,.2,0,.3-.2.4,0,0-.2.2-.4.2h-7.4c-.2,0-.3,0-.4-.2h0Z"/>
        <path class="cls-8" d="M764.5,1498.3c-.9-.5-1.7-1.3-2.2-2.2s-.8-2-.8-3.1v-3.1c0-1.1.3-2.1.8-3.1s1.3-1.7,2.2-2.2c.9-.5,1.9-.8,3-.8s1.7.2,2.5.5,1.5.8,2,1.5c.1.1.2.2.2.4s0,.4-.2.5l-1.1,1.1c-.1.1-.3.2-.4.2s-.3,0-.4-.2c-.7-.7-1.5-1-2.5-1s-1.5.3-2.1.9-.9,1.3-.9,2.1v3.3c0,.8.3,1.5.9,2.1s1.3.9,2.1.9,1.8-.3,2.5-1c.1-.2.3-.2.4-.2s.3,0,.4.2l1.1,1.1c.2.2.2.3.2.5s0,.3-.2.4c-.6.6-1.2,1.1-2,1.5s-1.6.5-2.5.5-2.1-.3-3-.8h0Z"/>
        <path class="cls-8" d="M777.5,1498c-.9-.5-1.7-1.3-2.2-2.2-.5-.9-.8-1.9-.8-3.1v-2.8c0-1.1.3-2.1.8-3.1s1.3-1.7,2.2-2.2c.9-.5,1.9-.8,3-.8s2.1.3,3,.8c.9.5,1.7,1.3,2.2,2.2.5.9.8,1.9.8,3.1v1.7c0,.3-.1.6-.3.8-.2.2-.5.3-.8.3h-8c0,1,.3,1.7.9,2.3s1.3.9,2.1.9h4c.2,0,.3,0,.4.2s.2.2.2.4v1.8c0,.2,0,.3-.2.4,0,0-.2.2-.4.2h-4c-1.1,0-2.1-.3-3-.8h0ZM783.6,1490v-.2c0-.8-.3-1.5-.9-2.1s-1.3-.9-2.1-.9-1.5.3-2.1.9-.9,1.3-.9,2.1v.2h6Z"/>
        <path class="cls-8" d="M612.5,1536.1c-1.1-1.4-2-3-2.8-4.9-.8-1.9-1.1-4.1-1.1-6.5s.4-4.6,1.1-6.5c.8-1.9,1.7-3.6,2.8-4.9.1-.2.3-.3.5-.3s.3,0,.5.2l.8.7c.1,0,.2.2.2.4s0,.2,0,.3c-.8,1.3-1.6,2.8-2.2,4.5s-.9,3.6-.9,5.7.3,4,.9,5.8c.6,1.7,1.3,3.3,2.2,4.6,0,0,0,0,0,.1,0,.1,0,.3-.2.4l-.8.7c-.2.1-.3.2-.5.2-.2,0-.4,0-.5-.3h0Z"/>
        <path class="cls-8" d="M619.9,1532c-.9-.5-1.7-1.3-2.2-2.2-.5-.9-.8-1.9-.8-3.1v-2.8c0-1.1.3-2.1.8-3.1s1.3-1.7,2.2-2.2c.9-.5,1.9-.8,3-.8s2.1.3,3,.8c.9.5,1.7,1.3,2.2,2.2.5.9.8,1.9.8,3.1v1.7c0,.3-.1.6-.3.8-.2.2-.5.3-.8.3h-8c0,1,.3,1.7.9,2.3s1.3.9,2.1.9h4c.2,0,.3,0,.4.2s.2.2.2.4v1.8c0,.2,0,.3-.2.4,0,0-.2.2-.4.2h-4c-1.1,0-2.1-.3-3-.8h0ZM625.9,1524v-.2c0-.8-.3-1.5-.9-2.1s-1.3-.9-2.1-.9-1.5.3-2.1.9-.9,1.3-.9,2.1v.2h6Z"/>
        <path class="cls-8" d="M631.9,1532.8c-.4-.4-.6-.9-.6-1.5s.2-1.1.6-1.5c.4-.4.9-.6,1.5-.6s1.1.2,1.5.6c.4.4.6.9.6,1.5s-.2,1.1-.6,1.5c-.4.4-.9.6-1.5.6s-1.1-.2-1.5-.6Z"/>
        <path class="cls-8" d="M639.9,1537.2c-1-.6-1.5-1.5-1.5-2.8s.3-1.7,1-2.4c-.6-.5-.9-1.2-.9-2s.1-1.1.4-1.6.7-1,1.2-1.3c-.5-.5-1-1-1.3-1.7s-.5-1.4-.5-2.2.2-1.9.8-2.8,1.2-1.4,2-1.8c.9-.4,1.8-.7,2.8-.7s1.5.1,2.1.4h5c.2,0,.3,0,.4.2s.2.2.2.4v1.7c0,.2,0,.3-.2.4,0,0-.2.2-.4.2h-2c.3.7.4,1.4.4,2.1s-.2,1.9-.8,2.7c-.5.8-1.2,1.4-2,1.8-.8.4-1.8.7-2.8.7s-1.6-.1-2.3-.4c-.4.4-.5.7-.5,1.1s.1.6.4.7.6.2,1.1.2c.7,0,1.4,0,2.1,0h1.2c1.4,0,2.6.3,3.5.8.9.5,1.3,1.4,1.3,2.7s-.6,2.7-1.8,3.4c-1.2.8-2.8,1.2-4.8,1.2s-3.1-.3-4.1-.9h0ZM647.5,1533.9c0-.4-.2-.7-.5-.9s-.8-.2-1.4-.2h-2.5c-.6,0-1.2,0-1.6,0-.2.3-.3.7-.3,1.1,0,.7.2,1.1.8,1.3.5.2,1.2.3,2.2.3,2.2,0,3.3-.5,3.3-1.6h0ZM645.8,1525c.5-.5.7-1.1.7-1.8s-.2-1.4-.7-1.9-1.1-.7-1.9-.7-1.4.2-1.9.7c-.5.5-.7,1.1-.7,1.9s.2,1.4.7,1.8c.5.5,1.1.7,1.9.7s1.4-.2,1.9-.7Z"/>
        <path class="cls-8" d="M654,1532.8c-.4-.4-.6-.9-.6-1.5s.2-1.1.6-1.5c.4-.4.9-.6,1.5-.6s1.1.2,1.5.6c.4.4.6.9.6,1.5s-.2,1.1-.6,1.5c-.4.4-.9.6-1.5.6s-1.1-.2-1.5-.6Z"/>
        <path class="cls-8" d="M670.3,1532.3c-1-.6-1.8-1.4-2.4-2.4-.6-1-.9-2.2-.9-3.4v-5.4c0-1.2.3-2.3.9-3.4s1.4-1.8,2.4-2.4c1-.6,2.1-.9,3.3-.9s2,.2,2.9.6,1.7.9,2.3,1.7c0,.1.2.3.2.4s0,.3-.2.5l-1.1,1.2c-.1.1-.3.2-.4.2s-.3,0-.5-.2c-.8-.9-1.9-1.3-3.1-1.3s-1.2.2-1.8.5-1,.8-1.3,1.4c-.3.6-.5,1.2-.5,1.9v5.4c0,.7.2,1.3.5,1.9s.8,1,1.3,1.4,1.1.5,1.8.5c1.3,0,2.3-.4,3.1-1.3.1-.2.3-.2.4-.2s.3,0,.4.2l1.1,1.2c.2.2.2.3.2.5s0,.3-.2.4c-.7.7-1.4,1.3-2.3,1.7s-1.9.6-2.9.6-2.3-.3-3.3-.9h0Z"/>
        <path class="cls-8" d="M682.4,1532.7c0,0-.2-.2-.2-.4v-16.6c0-.3.1-.6.3-.8.2-.2.5-.3.8-.3h4.8c1,0,2,.2,2.9.7s1.6,1.2,2.1,2,.8,1.8.8,2.8-.4,2.3-1.1,3.3c-.7,1-1.7,1.6-2.9,2l4.2,6.6c0,.1,0,.2,0,.4s0,.3-.2.4-.2.2-.4.2h-2.1c-.3,0-.5-.1-.7-.4l-4.2-6.8h-1.2v6.6c0,.2,0,.3-.2.4,0,0-.2.2-.4.2h-2c-.2,0-.3,0-.4-.2h0ZM687.9,1522.7c.8,0,1.4-.2,1.9-.7s.8-1.1.8-1.8-.2-1.4-.8-1.9-1.1-.7-1.9-.7h-2.6v5.2h2.6Z"/>
        <path class="cls-8" d="M705.6,1532.8c-.1,0-.2-.2-.3-.4l-3.4-10.3-.6-2.3-.3,2.4-1.1,10c0,.2-.1.3-.2.5-.1.1-.3.2-.5.2h-1.9c-.2,0-.3,0-.4-.2s-.1-.3-.1-.5l2.1-16.9c0-.2.1-.4.3-.6s.4-.2.6-.2h2.3c.2,0,.3,0,.5.2.1.1.2.2.3.4l3.8,11.8.5,1.8.5-1.7,3.8-11.8c0-.2.2-.3.3-.4.1,0,.3-.2.5-.2h2.1c.2,0,.4,0,.6.2.2.1.2.3.3.6l2.1,16.9c0,.2,0,.3-.1.5s-.2.2-.4.2h-2c-.2,0-.3,0-.5-.2-.1-.1-.2-.3-.2-.4l-1.2-10.2-.2-2.2-.7,2.4-3.3,10.2c0,.2-.2.3-.3.4-.1.1-.3.2-.5.2h-1.9c-.2,0-.3,0-.5-.2h0Z"/>
        <path class="cls-8" d="M720.3,1535.6c0-.1-.1-.3,0-.5l1.5-5c0-.1.1-.2.2-.3s.2-.1.4-.1h2.5c.2,0,.3,0,.4.2s.2.2.2.4,0,.2,0,.3l-3,5.3h-1.6c-.2,0-.3,0-.4-.2h0Z"/>
        <path class="cls-8" d="M735.1,1532.5c-.2-.2-.3-.5-.3-.8v-16c0-.3.1-.6.3-.8.2-.2.5-.3.8-.3h8.7c.2,0,.3,0,.4.2s.2.2.2.4v1.9c0,.2,0,.3-.2.4s-.2.2-.4.2h-6.7v4.3h5c.2,0,.3,0,.4.2s.2.2.2.4v1.8c0,.2,0,.3-.2.4,0,0-.2.2-.4.2h-5v5.1h6.7c.2,0,.3,0,.4.2s.2.2.2.4v1.9c0,.2,0,.3-.2.4,0,0-.2.2-.4.2h-8.7c-.3,0-.6-.1-.8-.3h0Z"/>
        <path class="cls-8" d="M748.8,1532.7c0,0-.2-.2-.2-.4v-16.6c0-.3.1-.6.3-.8.2-.2.5-.3.8-.3h4.8c1,0,2,.2,2.9.7s1.6,1.2,2.1,2,.8,1.8.8,2.8-.4,2.3-1.1,3.3c-.7,1-1.7,1.6-2.9,2l4.2,6.6c0,.1,0,.2,0,.4s0,.3-.2.4-.2.2-.4.2h-2.1c-.3,0-.5-.1-.7-.4l-4.2-6.8h-1.2v6.6c0,.2,0,.3-.2.4,0,0-.2.2-.4.2h-2c-.2,0-.3,0-.4-.2h0ZM754.4,1522.7c.8,0,1.4-.2,1.9-.7s.8-1.1.8-1.8-.2-1.4-.8-1.9-1.1-.7-1.9-.7h-2.6v5.2h2.6Z"/>
        <path class="cls-8" d="M763.9,1532.7c0,0-.2-.2-.2-.4v-16.6c0-.3.1-.6.3-.8.2-.2.5-.3.8-.3h4.5c1.1,0,2.1.3,3,.8s1.6,1.2,2.2,2.1.8,1.9.8,2.9-.3,2.1-.8,3c-.5.9-1.3,1.6-2.2,2.1-.9.5-1.9.8-3,.8h-2.5v5.9c0,.2,0,.3-.2.4,0,0-.2.2-.4.2h-2c-.2,0-.3,0-.4-.2h0ZM769.3,1523.4c.8,0,1.5-.3,2.1-.9s.9-1.3.9-2.1-.3-1.5-.9-2.1-1.3-.9-2.1-.9h-2.4v5.9h2.4Z"/>
        <path class="cls-8" d="M778.8,1536.2l-.8-.7c-.3-.2-.3-.4-.2-.5.9-1.3,1.6-2.8,2.2-4.6s.9-3.7.9-5.8-.3-3.9-.9-5.7-1.3-3.2-2.2-4.5c0,0,0-.2,0-.3,0-.2,0-.3.2-.4l.8-.7c.2-.1.3-.2.5-.2.2,0,.4,0,.5.3,1.1,1.4,2,3,2.8,4.9.8,1.9,1.1,4.1,1.1,6.5s-.4,4.6-1.1,6.5c-.8,1.9-1.7,3.6-2.8,4.9-.1.2-.3.3-.5.3s-.3,0-.5-.2h0Z"/>
      </g>
    </g>
    <g>
      <path id="Rectangle-2" class="cls-2" d="M264.2,1132.1h209v184.4h-209v-184.4Z"/>
      <g>
        <path class="cls-8" d="M307,1287.8c-.2-.2-.4-.5-.4-.8v-17.6c0-.3.1-.6.4-.8s.5-.3.9-.3h9.5c.2,0,.3,0,.4.2.1.1.2.2.2.4v2.1c0,.2,0,.3-.2.4s-.2.2-.4.2h-7.3v4.8h5.5c.2,0,.3,0,.4.2.1.1.2.2.2.4v2c0,.2,0,.3-.2.4-.1.1-.2.2-.4.2h-5.5v5.5h7.3c.2,0,.3,0,.4.2.1.1.2.2.2.4v2.1c0,.2,0,.3-.2.4s-.2.2-.4.2h-9.5c-.3,0-.6-.1-.9-.3h0Z"/>
        <path class="cls-8" d="M320.9,1288c-.1-.1-.2-.3-.2-.4s0-.2.1-.4l4.9-7.5-4.3-6.6c0-.2-.1-.3-.1-.4,0-.2,0-.3.2-.4.1-.1.3-.2.5-.2h2.3c.3,0,.5.1.7.4l2.8,4.3,2.7-4.3c.2-.3.4-.4.7-.4h2.3c.2,0,.4,0,.5.2s.2.3.2.4,0,.2-.1.4l-4.3,6.6,4.9,7.5c0,.2.1.3.1.4,0,.2,0,.3-.2.4s-.3.2-.5.2h-2.3c-.3,0-.5-.1-.7-.4l-3.3-5.2-3.4,5.2c-.2.3-.4.4-.7.4h-2.3c-.2,0-.4,0-.5-.2h0Z"/>
        <path class="cls-8" d="M340,1287.6c-1-.6-1.8-1.4-2.4-2.4-.6-1-.9-2.2-.9-3.4v-3.4c0-1.2.3-2.3.9-3.4s1.4-1.8,2.4-2.4c1-.6,2.1-.9,3.4-.9s1.8.2,2.7.6c.9.4,1.6.9,2.2,1.6.1.1.2.3.2.4s0,.4-.2.6l-1.2,1.2c-.1.1-.3.2-.5.2s-.3,0-.5-.2c-.7-.7-1.6-1.1-2.7-1.1s-1.7.3-2.3,1c-.6.6-1,1.4-1,2.3v3.7c0,.9.3,1.7,1,2.3.6.6,1.4,1,2.3,1s2-.4,2.7-1.1c.1-.2.3-.2.5-.2s.3,0,.5.2l1.2,1.2c.2.2.2.3.2.6s0,.3-.2.4c-.6.7-1.4,1.2-2.2,1.6s-1.8.6-2.7.6-2.3-.3-3.4-.9h0Z"/>
        <path class="cls-8" d="M352.2,1288c-.1-.1-.2-.2-.2-.4v-20.3c0-.2,0-.3.2-.4.1-.1.2-.2.4-.2h2.2c.2,0,.3,0,.4.2.1.1.2.2.2.4v6.2c.5-.5,1.2-1,1.9-1.3.7-.3,1.4-.5,2.1-.5,1.2,0,2.2.2,3.1.7.9.5,1.6,1.2,2.1,2.1.5.9.7,1.9.7,3.1v9.9c0,.2,0,.3-.2.4-.1.1-.2.2-.4.2h-2.2c-.2,0-.3,0-.4-.2-.1-.1-.2-.2-.2-.4v-9.5c0-1-.2-1.8-.8-2.3-.5-.5-1.2-.8-2.1-.8s-2,.4-2.6,1.1c-.6.7-1,1.7-1,2.9v8.6c0,.2,0,.3-.2.4s-.2.2-.4.2h-2.2c-.2,0-.3,0-.4-.2h0Z"/>
        <path class="cls-8" d="M369.7,1287.2c-1-.9-1.5-2-1.5-3.5s.5-2.4,1.3-3.2,2.2-1.4,3.8-1.7c.4,0,.8,0,1.2-.2,1.3-.2,2.1-.3,2.4-.3.7-.1,1-.5,1-1.2s-.3-1.2-.9-1.7-1.3-.6-2.1-.6c-1.5,0-2.6.6-3.3,1.7-.1.2-.3.4-.5.4s-.3,0-.4-.1l-1.6-1.1c-.2-.1-.2-.3-.2-.5s0-.1,0-.2c.5-1,1.3-1.8,2.4-2.4s2.3-.8,3.6-.8,2.3.2,3.2.7c.9.5,1.7,1.1,2.2,2s.8,1.8.8,3v10.2c0,.2,0,.3-.2.4s-.2.2-.4.2h-1.9c-.2,0-.3,0-.4-.2-.1,0-.2-.2-.2-.4v-1.1c-1.3,1.4-2.8,2-4.6,2s-2.8-.4-3.8-1.3h0ZM375.9,1285c.6-.4,1.2-.9,1.6-1.5s.6-1.2.6-1.9v-.6l-2.1.3c-1.1.1-1.9.2-2.2.3-1.5.3-2.3.9-2.3,2s.2,1,.6,1.4c.4.3,1,.5,1.7.5s1.4-.2,2.1-.6h0Z"/>
        <path class="cls-8" d="M385.6,1288c-.1-.1-.2-.2-.2-.4v-14.9c0-.2,0-.3.2-.4s.2-.2.4-.2h2.2c.2,0,.3,0,.4.2s.2.2.2.4v1.3c.5-.7,1.1-1.3,1.9-1.7s1.5-.6,2.4-.6,2,.2,2.9.8c.9.5,1.5,1.2,2,2.1.5.9.7,1.9.7,3v9.9c0,.2,0,.3-.2.4-.1.1-.2.2-.4.2h-2.2c-.2,0-.3,0-.4-.2-.1-.1-.2-.2-.2-.4v-9.5c0-1-.2-1.8-.8-2.3-.5-.5-1.2-.8-2.1-.8s-2,.4-2.6,1.1c-.6.7-1,1.7-1,2.9v8.6c0,.2,0,.3-.2.4s-.2.2-.4.2h-2.2c-.2,0-.3,0-.4-.2h0Z"/>
        <path class="cls-8" d="M403.8,1293c-1.1-.7-1.7-1.7-1.7-3.1s.4-1.9,1.1-2.7c-.7-.5-1-1.3-1-2.2s.1-1.2.5-1.8c.3-.6.7-1.1,1.3-1.5-.6-.5-1.1-1.1-1.4-1.8s-.5-1.5-.5-2.4.3-2.2.8-3c.5-.9,1.3-1.6,2.2-2s2-.7,3.1-.7,1.6.1,2.4.4h5.5c.2,0,.3,0,.4.2.1.1.2.2.2.4v1.8c0,.2,0,.3-.2.4-.1.1-.2.2-.4.2h-2.2c.3.7.5,1.5.5,2.3s-.3,2.1-.8,3-1.3,1.5-2.2,2c-.9.5-2,.7-3.1.7s-1.7-.2-2.5-.4c-.4.4-.6.8-.6,1.2s.1.6.4.8.7.2,1.2.3c.8,0,1.5,0,2.3,0h1.3c1.6,0,2.8.3,3.8.9s1.5,1.5,1.5,3-.7,2.9-2,3.8-3.1,1.3-5.3,1.3-3.4-.3-4.5-1h0ZM412.2,1289.3c0-.5-.2-.8-.5-.9-.4-.2-.9-.2-1.5-.2h-2.7c-.7,0-1.3,0-1.7,0-.2.3-.3.7-.3,1.2,0,.7.3,1.2.8,1.4.5.2,1.3.4,2.4.4,2.4,0,3.6-.6,3.6-1.7h0ZM410.3,1279.5c.5-.5.8-1.2.8-2s-.2-1.5-.8-2-1.2-.8-2.1-.8-1.6.3-2.1.8c-.5.5-.8,1.2-.8,2s.3,1.5.8,2c.5.5,1.2.8,2.1.8s1.6-.2,2.1-.8Z"/>
        <path class="cls-8" d="M422,1287.3c-1-.6-1.8-1.4-2.4-2.4-.6-1-.9-2.2-.9-3.4v-3c0-1.2.3-2.3.9-3.4s1.4-1.8,2.4-2.4c1-.6,2.1-.9,3.4-.9s2.3.3,3.4.9c1,.6,1.8,1.4,2.4,2.4.6,1,.9,2.2.9,3.4v1.9c0,.3-.1.6-.4.8s-.5.3-.9.3h-8.8c0,1.1.3,1.8,1,2.5.6.6,1.4,1,2.3,1h4.5c.2,0,.3,0,.4.2.1.1.2.2.2.4v2c0,.2,0,.3-.2.4-.1.1-.2.2-.4.2h-4.5c-1.2,0-2.3-.3-3.4-.9h0ZM428.7,1278.5v-.2c0-.9-.3-1.7-1-2.3s-1.4-1-2.3-1-1.7.3-2.3,1-1,1.4-1,2.3v.2h6.6Z"/>
      </g>
      <path class="cls-3" d="M376.1,1164.7s0,0,0,0l-42.5,8c-.7.1-1.2.8-1.2,1.5v56.5c0,.7.5,1.4,1.2,1.5l42.5,8.2c.4,0,.9,0,1.2-.3.3-.3.5-.7.6-1.2v-13.7h28.8c.8,0,1.5-.7,1.5-1.5v-42.5c0-.8-.7-1.5-1.5-1.5h-28.8v-13.7c0-.4-.2-.8-.5-1.1-.3-.3-.8-.4-1.2-.4h0ZM374.8,1168v12.9c0,.3,0,.6,0,.9v41.8c0,.2,0,.4,0,.6v13l-39.4-7.6v-54.1l39.4-7.5h0ZM377.9,1182.9h27.3v39.4h-27.3v-4.6h2.4c1.1-.2,9.7-11.2,8.3-12.3-1.1-1.1-4.7,4.8-9.1,8h-1.7v-10.1c2.4,1.6,4.5,2.6,5,2.1.8-.8-2.1-2.8-5-5.5v-8.3h2.6l1.7,1.5c.3.3.6.3.9,0l1.2-1.2c.3-.3.3-.6,0-.9l-3.5-3.5c-.1-.2-.5-.3-.6-.3h-2.3v-4.4h0ZM361.5,1187.1l-13.8,1.5v27.4l14.3,1.4v-5.6l-9-.4v-6.5h7.9c0,.1,0-5.3,0-5.3h-7.9c0,.1,0-6.2,0-6.2l8.5-.6v-5.6h0ZM390.5,1187.4c-1.1.2-9.6,11.2-8.3,12.3,1.1,1.1,4.7-4.8,9.1-8h5v5.7l-1.5,1.5c-.3.3-.3.6,0,.9l1.2,1.2c.3.3.6.3.9,0l3.5-3.5c.1-.2.3-.4.3-.6v-8.5c0-.6-.4-1-.9-1h-9.2ZM388.4,1199.6c-.1,0-.3,0-.4,0-1.1,1.1,5,4.6,8.2,9v4.8h-5.7l-1.7-1.5c-.3-.3-.6-.3-.9,0l-1.2,1.2c-.3.3-.3.6,0,.9l3.5,3.5c.1.2.5.3.6.3h8.8c.5,0,.9-.4.9-.9v-9c0-1.1-9.9-8.5-12.1-8.4h0Z"/>
    </g>
    <g>
      <path id="Rectangle-3" class="cls-2" d="M698.9,1132.9h209v184.4h-209v-184.4Z"/>
      <g>
        <path class="cls-8" d="M730.7,1288.1c-1-.3-1.9-.8-2.7-1.4,0,0-.2-.2-.2-.3,0-.1,0-.3,0-.4l1-1.8c.1-.2.3-.3.5-.3s.3,0,.4.1c1.4.9,2.7,1.3,3.9,1.3s1.8-.2,2.3-.7c.6-.5.8-1.1.8-1.9s-.1-.9-.4-1.3c-.3-.3-.7-.6-1.1-.9s-1.2-.5-2-.9l-.8-.3c-1.3-.5-2.3-1.2-3.2-2.1s-1.3-2.1-1.3-3.7.3-2.2.8-3c.5-.9,1.2-1.6,2.1-2,.9-.5,2-.7,3.2-.7s2,.2,3,.5c1,.3,1.9.8,2.7,1.4,0,0,.2.2.2.3,0,.1,0,.3,0,.4l-.9,1.8c-.1.2-.3.3-.5.3s-.3,0-.4-.1c-.7-.5-1.4-.8-2.1-1s-1.3-.3-1.8-.3c-.8,0-1.5.2-2,.7s-.7,1-.7,1.8.3,1.3.8,1.8c.5.5,1.4,1,2.6,1.4.2,0,.8.3,1.9.8s2,1.1,2.7,2c.7.9,1,1.9,1,3.1s-.3,2.2-.8,3.1c-.5.9-1.3,1.6-2.3,2.1s-2.1.8-3.4.8-2-.2-3-.5h0Z"/>
        <path class="cls-8" d="M744,1288.1c-.1-.1-.2-.2-.2-.4v-20.3c0-.2,0-.3.2-.4s.2-.2.4-.2h2.2c.2,0,.3,0,.4.2s.2.2.2.4v6.2c.5-.5,1.2-1,1.8-1.3.7-.3,1.4-.5,2.1-.5,1.2,0,2.2.2,3.1.7.9.5,1.6,1.2,2.1,2.1.5.9.7,1.9.7,3.1v9.9c0,.2,0,.3-.2.4s-.2.2-.4.2h-2.2c-.2,0-.3,0-.4-.2s-.2-.2-.2-.4v-9.5c0-1-.2-1.8-.8-2.3-.5-.5-1.2-.8-2.1-.8s-2,.4-2.6,1.1c-.6.7-1,1.7-1,2.9v8.6c0,.2,0,.3-.2.4s-.2.2-.4.2h-2.2c-.2,0-.3,0-.4-.2h0Z"/>
        <path class="cls-8" d="M761.5,1287.3c-1-.9-1.5-2-1.5-3.5s.5-2.4,1.3-3.2,2.2-1.4,3.8-1.7c.4,0,.8,0,1.2-.2,1.3-.2,2.1-.3,2.4-.3.7-.1,1-.5,1-1.2s-.3-1.2-.8-1.7-1.3-.6-2.1-.6c-1.5,0-2.6.6-3.3,1.7-.2.2-.3.4-.5.4s-.3,0-.4-.1l-1.6-1.1c-.2-.1-.2-.3-.2-.5s0-.1,0-.2c.5-1,1.3-1.8,2.4-2.4s2.3-.8,3.6-.8,2.3.2,3.2.7c.9.5,1.7,1.1,2.2,2s.8,1.8.8,3v10.2c0,.2,0,.3-.2.4s-.2.2-.4.2h-1.9c-.2,0-.3,0-.4-.2s-.2-.2-.2-.4v-1.1c-1.3,1.4-2.8,2-4.6,2s-2.8-.4-3.8-1.3h0ZM767.7,1285c.7-.4,1.2-.9,1.6-1.5s.6-1.2.6-1.9v-.6l-2.1.3c-1.1.1-1.9.2-2.2.3-1.5.3-2.3.9-2.3,2s.2,1,.6,1.4,1,.5,1.7.5,1.4-.2,2.1-.6h0Z"/>
        <path class="cls-8" d="M776.6,1288.1c-.1-.1-.2-.2-.2-.4v-2.1c0-.2,0-.3.2-.4s.2-.2.4-.2h2.1v-9.6h-2.4c-.2,0-.3,0-.4-.2s-.2-.2-.2-.4v-2c0-.2,0-.3.2-.4s.2-.2.4-.2h4.3c.3,0,.6.1.8.3s.3.5.3.8v1l1.5-1.2c.6-.4,1-.8,1.5-.9.4-.2.9-.3,1.5-.3h.9c.2,0,.3,0,.4.2s.2.2.2.4v2.2c0,.2,0,.3-.2.4s-.2.2-.4.2h-.7c-.5,0-.9,0-1.3.2-.3.2-.9.5-1.6,1.1l-1.5,1.2v7.1h2.8c.2,0,.3,0,.4.2s.2.2.2.4v2.1c0,.2,0,.3-.2.4s-.2.2-.4.2h-8.2c-.2,0-.3,0-.4-.2h0Z"/>
        <path class="cls-8" d="M793.5,1287.3c-1-.6-1.8-1.4-2.4-2.4-.6-1-.9-2.2-.9-3.4v-3c0-1.2.3-2.3.9-3.4.6-1,1.4-1.8,2.4-2.4,1-.6,2.1-.9,3.3-.9s2.3.3,3.3.9c1,.6,1.8,1.4,2.4,2.4.6,1,.9,2.2.9,3.4v1.9c0,.3-.1.6-.3.8s-.5.3-.8.3h-8.8c0,1.1.3,1.8,1,2.5.6.6,1.4,1,2.3,1h4.5c.2,0,.3,0,.4.2s.2.2.2.4v2c0,.2,0,.3-.2.4s-.2.2-.4.2h-4.5c-1.2,0-2.3-.3-3.3-.9h0ZM800.2,1278.6v-.2c0-.9-.3-1.7-1-2.3s-1.4-1-2.3-1-1.7.3-2.3,1-1,1.4-1,2.3v.2h6.6Z"/>
        <path class="cls-8" d="M807.5,1293.5c-.1-.1-.2-.2-.2-.4v-20.3c0-.2,0-.3.2-.4s.2-.2.4-.2h1.8c.2,0,.3,0,.4.2s.2.2.2.4v1.3c.5-.7,1.1-1.3,1.8-1.7s1.5-.6,2.3-.6,2.1.3,3.1.9,1.7,1.4,2.3,2.4.8,2.1.8,3.2v3.9c0,1.1-.3,2.2-.8,3.2s-1.3,1.8-2.3,2.4-2,.9-3.1.9-1.4-.2-2-.4-1.2-.7-1.8-1.2v6.1c0,.2,0,.3-.2.4s-.2.2-.4.2h-2.2c-.2,0-.3,0-.4-.2h0ZM816.3,1284.4c.6-.6,1-1.4,1-2.3v-3.7c0-.9-.3-1.7-1-2.3-.6-.6-1.4-1-2.3-1s-1.7.3-2.3,1c-.7.6-1,1.4-1,2.3v3.7c0,.9.3,1.7,1,2.3.7.6,1.4,1,2.3,1s1.7-.3,2.3-1Z"/>
        <path class="cls-8" d="M827.4,1287.7c-1-.6-1.8-1.4-2.4-2.4-.6-1-.9-2.1-.9-3.3v-3.7c0-1.2.3-2.3.9-3.3.6-1,1.4-1.8,2.4-2.4,1-.6,2.1-.9,3.3-.9s2.3.3,3.3.9c1,.6,1.8,1.4,2.4,2.4.6,1,.9,2.1.9,3.3v3.7c0,1.2-.3,2.3-.9,3.3-.6,1-1.4,1.8-2.4,2.4-1,.6-2.1.9-3.3.9s-2.3-.3-3.3-.9ZM833.1,1284.4c.6-.6,1-1.4,1-2.3v-3.7c0-.9-.3-1.7-1-2.3-.6-.6-1.4-1-2.3-1s-1.7.3-2.3,1-1,1.4-1,2.3v3.7c0,.9.3,1.7,1,2.3.6.6,1.4,1,2.3,1s1.7-.3,2.3-1Z"/>
        <path class="cls-8" d="M843.1,1287.8c-.3-.3-.4-.6-.4-1v-11.4h-2.3c-.2,0-.3,0-.4-.2s-.2-.2-.2-.4v-2c0-.2,0-.3.2-.4s.2-.2.4-.2h4.2c.4,0,.7.1,1,.4s.4.6.4,1v11.4h2.3c.2,0,.3,0,.4.2s.2.2.2.4v2c0,.2,0,.3-.2.4s-.2.2-.4.2h-4.2c-.4,0-.7-.1-1-.4ZM843,1270.1c-.1-.1-.2-.2-.2-.4v-3.1c0-.2,0-.3.2-.4s.2-.2.4-.2h1.9c.2,0,.3,0,.4.2s.2.2.2.4v3.1c0,.2,0,.3-.2.4s-.2.2-.4.2h-1.9c-.2,0-.3,0-.4-.2Z"/>
        <path class="cls-8" d="M852.2,1288.1c-.1-.1-.2-.2-.2-.4v-14.9c0-.2,0-.3.2-.4s.2-.2.4-.2h2.2c.2,0,.3,0,.4.2s.2.2.2.4v1.3c.5-.7,1.1-1.3,1.9-1.7s1.5-.6,2.4-.6,2,.2,2.9.8c.8.5,1.5,1.2,2,2.1.5.9.7,1.9.7,3v9.9c0,.2,0,.3-.2.4s-.2.2-.4.2h-2.2c-.2,0-.3,0-.4-.2s-.2-.2-.2-.4v-9.5c0-1-.2-1.8-.8-2.3-.5-.5-1.2-.8-2.1-.8s-2,.4-2.6,1.1c-.6.7-1,1.7-1,2.9v8.6c0,.2,0,.3-.2.4s-.2.2-.4.2h-2.2c-.2,0-.3,0-.4-.2h0Z"/>
        <path class="cls-8" d="M871.8,1286.9c-.9-.9-1.4-2.1-1.4-3.5v-8h-1.9c-.2,0-.3,0-.4-.2s-.2-.2-.2-.4v-2c0-.2,0-.3.2-.4s.2-.2.4-.2h1.9v-3c0-.2,0-.3.2-.4s.2-.2.4-.2h2.2c.2,0,.3,0,.4.2s.2.2.2.4v3h4.7c.2,0,.3,0,.4.2s.2.2.2.4v2c0,.2,0,.3-.2.4s-.2.2-.4.2h-4.7v7.9c0,.6.2,1,.5,1.3.3.3.8.5,1.3.5h2.9c.2,0,.3,0,.4.2s.2.2.2.4v2c0,.2,0,.3-.2.4s-.2.2-.4.2h-3.2c-1.5,0-2.6-.4-3.5-1.3h0Z"/>
      </g>
      <g>
        <path class="cls-8" d="M808.2,1209.2c-10,0-18.2,8.2-18.2,18.2s8.2,18.2,18.2,18.2,18.2-8.2,18.2-18.2-8.2-18.2-18.2-18.2ZM808.2,1241.5c-7.8,0-14.2-6.4-14.2-14.2s6.4-14.2,14.2-14.2,14.2,6.4,14.2,14.2-6.4,14.2-14.2,14.2Z"/>
        <path class="cls-8" d="M830.8,1185.2c-1.1-.1-2.2-.2-3.3-.2h0c0,0-.1,0-.2,0h0c-6.3-.2-12,1.8-15.5,5.9v5.3c3.4-4.4,9.3-7.2,15.5-7.3.9,0,2.1.1,2.9.2,9.4,1.3,16.5,9.5,16.5,19s-7.6,19.2-18.2,19.2l-.4,4c12.8,0,22.6-10.4,22.6-23.2s-8.6-21.4-19.9-23h0Z"/>
        <path class="cls-8" d="M806.2,1164.7c11.3,0,20.2,7.9,22,18.9l4.1.3c-1.5-13.3-12.7-23.3-26.1-23.3s-22,7.8-25.2,19h4.2c2.7-9.4,11.2-15,21.1-15h0Z"/>
        <path class="cls-8" d="M769.8,1219.3v-32.3c0-1.1.9-2,2-2h32.3c1.1,0,2,.9,2,2v20.9h4v-20.9c0-3.3-2.7-6-6-6h-32.3c-3.3,0-6,2.7-6,6v32.3c0,3.3,2.7,6,6,6h17v-4h-17c-1.1,0-2-.9-2-2Z"/>
        <path class="cls-8" d="M786.8,1209.7h-.1c-1,0-4.8-1.4-5.5-2l-.8-.7v6h.3c.9.6,5.1,1.4,6.4,1.4h0c3.2,0,5.6-.8,7.1-2.2,1.1-1.1,1.7-2.6,1.7-4.5,0-4.2-4-6-6.9-7.3-1.7-.7-3.2-1.4-3.2-2.2s.7-1.6,3.6-1.6,4.2,1,4.7,1.3l.9.6v-5.6h-.3c-.8-.4-3.3-.9-5.5-.9-8,0-8.8,4.7-8.8,6.7,0,4.2,3.7,5.7,6.7,7,1.9.8,3.5,1.5,3.5,2.6s-.1.6-.3.8c-.5.5-1.7.8-3.3.8h0Z"/>
      </g>
    </g>
    <g>
      <path id="Rectangle-5" class="cls-2" d="M.5,0h958.6v296.9H.5V0Z"/>
      <g>
        <path class="cls-8" d="M304.8,253.9c-1.4-.8-2.5-1.9-3.3-3.4s-1.2-3-1.2-4.6v-7.5c0-1.7.4-3.2,1.2-4.6s1.9-2.5,3.3-3.4c1.4-.8,2.9-1.2,4.5-1.2s2.8.3,4,.8c1.2.5,2.3,1.3,3.1,2.3.1.2.2.4.2.6s0,.5-.3.7l-1.5,1.6c-.2.2-.4.3-.6.3s-.4-.1-.6-.3c-1.1-1.2-2.5-1.9-4.3-1.9s-1.7.2-2.4.7-1.3,1.1-1.8,1.9-.7,1.6-.7,2.6v7.5c0,.9.2,1.8.7,2.6.4.8,1,1.4,1.8,1.9.7.5,1.5.7,2.4.7,1.8,0,3.2-.6,4.3-1.9.2-.2.4-.3.6-.3s.4,0,.6.3l1.5,1.6c.2.2.3.4.3.7s0,.4-.2.6c-.9,1-2,1.8-3.2,2.3-1.2.5-2.6.8-4,.8s-3.1-.4-4.5-1.2h0Z"/>
        <path class="cls-8" d="M323.7,254.3c-.3-.3-.4-.6-.4-1.1v-21.2h-3.2c-.2,0-.4,0-.5-.2s-.2-.3-.2-.5v-2.6c0-.2,0-.4.2-.5s.3-.2.5-.2h5.9c.4,0,.8.1,1.1.4.3.3.4.6.4,1.1v21.2h3.2c.2,0,.4,0,.5.2.1.1.2.3.2.5v2.6c0,.2,0,.4-.2.5-.1.1-.3.2-.5.2h-5.9c-.4,0-.8-.1-1.1-.4h0Z"/>
        <path class="cls-8" d="M337.6,254.2c-.3-.3-.5-.8-.5-1.2v-14.3h-2.8c-.2,0-.4,0-.5-.2-.1-.1-.2-.3-.2-.5v-2.5c0-.2,0-.4.2-.5s.3-.2.5-.2h5.3c.5,0,.9.2,1.2.5s.5.8.5,1.2v14.3h2.8c.2,0,.4,0,.5.2.1.1.2.3.2.5v2.5c0,.2,0,.4-.2.5-.1.1-.3.2-.5.2h-5.3c-.5,0-.9-.2-1.2-.5h0ZM337.5,232.1c-.1-.1-.2-.3-.2-.5v-3.8c0-.2,0-.4.2-.5s.3-.2.5-.2h2.4c.2,0,.4,0,.5.2.1.1.2.3.2.5v3.8c0,.2,0,.4-.2.5-.1.1-.3.2-.5.2h-2.4c-.2,0-.4,0-.5-.2Z"/>
        <path class="cls-8" d="M351.8,253.6c-1.3-.8-2.3-1.8-3-3s-1.1-2.7-1.1-4.2v-3.8c0-1.5.4-2.9,1.1-4.2s1.8-2.3,3-3c1.3-.8,2.7-1.1,4.2-1.1s2.9.4,4.2,1.1,2.3,1.8,3,3,1.1,2.7,1.1,4.2v2.4c0,.4-.1.8-.4,1.1-.3.3-.6.4-1.1.4h-11v.2c0,1.1.4,2.1,1.2,2.9.8.8,1.8,1.2,2.9,1.2h5.6c.2,0,.4,0,.5.2s.2.3.2.5v2.5c0,.2,0,.4-.2.5-.1.1-.3.2-.5.2h-5.6c-1.5,0-2.9-.4-4.2-1.1h0ZM360.1,242.6v-.3c0-1.1-.4-2.1-1.2-2.9-.8-.8-1.8-1.2-2.9-1.2s-2.1.4-2.9,1.2c-.8.8-1.2,1.8-1.2,2.9v.3h8.3Z"/>
        <path class="cls-8" d="M369.1,254.5c-.1-.1-.2-.3-.2-.5v-18.6c0-.2,0-.4.2-.5s.3-.2.5-.2h2.7c.2,0,.4,0,.5.2s.2.3.2.5v1.6c.6-.9,1.4-1.6,2.3-2.1s1.9-.8,3-.8,2.5.3,3.6.9,1.9,1.5,2.5,2.6.9,2.4.9,3.8v12.4c0,.2,0,.4-.2.5-.1.1-.3.2-.5.2h-2.7c-.2,0-.4,0-.5-.2-.1-.1-.2-.3-.2-.5v-11.9c0-1.2-.3-2.2-.9-2.9s-1.5-1-2.7-1-2.5.4-3.3,1.4c-.8.9-1.2,2.1-1.2,3.7v10.7c0,.2,0,.4-.2.5s-.3.2-.5.2h-2.7c-.2,0-.4,0-.5-.2h0Z"/>
        <path class="cls-8" d="M393.6,253c-1.1-1.1-1.7-2.6-1.7-4.4v-10h-2.4c-.2,0-.4,0-.5-.2s-.2-.3-.2-.5v-2.4c0-.2,0-.4.2-.5.1-.1.3-.2.5-.2h2.4v-3.8c0-.2,0-.4.2-.5s.3-.2.5-.2h2.7c.2,0,.4,0,.5.2.1.1.2.3.2.5v3.8h5.9c.2,0,.4,0,.5.2s.2.3.2.5v2.5c0,.2,0,.4-.2.5-.1.1-.3.2-.5.2h-5.9v9.8c0,.7.2,1.3.6,1.7s1,.6,1.6.6h3.7c.2,0,.4.1.5.2.1.1.2.3.2.5v2.4c0,.2,0,.4-.2.5s-.3.2-.5.2h-4c-1.8,0-3.3-.6-4.4-1.7h0Z"/>
        <path class="cls-8" d="M417.8,261.3c-.1-.1-.2-.3-.2-.5v-33.1c0-.2,0-.3.2-.5.1-.1.3-.2.4-.2h2.2c.2,0,.3,0,.5.2s.2.3.2.5v33.1c0,.2,0,.3-.2.5s-.3.2-.5.2h-2.2c-.2,0-.3,0-.4-.2Z"/>
        <path class="cls-8" d="M435.5,254.5c-.2-.1-.2-.3-.2-.6s0-.2,0-.3l7.6-23.4c0-.2.2-.4.4-.6s.4-.2.7-.2h2.7c.3,0,.5,0,.7.2.2.1.3.3.4.6l7.6,23.4c0,0,0,.2,0,.3,0,.2,0,.4-.2.6s-.4.2-.6.2h-2.5c-.3,0-.5,0-.7-.2-.2-.1-.3-.3-.4-.6l-1.6-5h-8.2l-1.6,5c0,.2-.2.4-.4.6s-.4.2-.7.2h-2.5c-.2,0-.4,0-.6-.2h0ZM448.2,244.9l-2.9-9.4-2.9,9.4h5.7Z"/>
        <path class="cls-8" d="M459.5,261.3c-.1-.1-.2-.3-.2-.5v-25.3c0-.2,0-.4.2-.5s.3-.2.5-.2h2.3c.2,0,.4,0,.5.2s.2.3.2.5v1.6c.6-.9,1.4-1.6,2.3-2.1.9-.5,1.9-.7,2.9-.7s2.7.4,3.9,1.1c1.2.7,2.2,1.7,2.9,3s1.1,2.6,1.1,4v4.9c0,1.4-.4,2.8-1,4-.7,1.2-1.6,2.2-2.8,3-1.2.7-2.5,1.1-3.9,1.1s-1.7-.2-2.5-.5-1.5-.9-2.2-1.6v7.7c0,.2,0,.4-.2.5s-.3.2-.5.2h-2.7c-.2,0-.4,0-.5-.2h0ZM470.5,249.9c.8-.8,1.2-1.8,1.2-2.9v-4.7c0-1.1-.4-2.1-1.2-2.9-.8-.8-1.8-1.2-2.9-1.2s-2.1.4-2.9,1.2c-.8.8-1.2,1.8-1.2,2.9v4.7c0,1.1.4,2.1,1.2,2.9s1.8,1.2,2.9,1.2,2.1-.4,2.9-1.2Z"/>
        <path class="cls-8" d="M481,261.3c-.1-.1-.2-.3-.2-.5v-25.3c0-.2,0-.4.2-.5s.3-.2.5-.2h2.3c.2,0,.4,0,.5.2s.2.3.2.5v1.6c.6-.9,1.4-1.6,2.3-2.1.9-.5,1.9-.7,2.9-.7s2.7.4,3.9,1.1c1.2.7,2.2,1.7,2.9,3s1.1,2.6,1.1,4v4.9c0,1.4-.4,2.8-1,4-.7,1.2-1.6,2.2-2.8,3-1.2.7-2.5,1.1-3.9,1.1s-1.7-.2-2.5-.5-1.5-.9-2.2-1.6v7.7c0,.2,0,.4-.2.5s-.3.2-.5.2h-2.7c-.2,0-.4,0-.5-.2h0ZM492,249.9c.8-.8,1.2-1.8,1.2-2.9v-4.7c0-1.1-.4-2.1-1.2-2.9-.8-.8-1.8-1.2-2.9-1.2s-2.1.4-2.9,1.2c-.8.8-1.2,1.8-1.2,2.9v4.7c0,1.1.4,2.1,1.2,2.9s1.8,1.2,2.9,1.2,2.1-.4,2.9-1.2Z"/>
        <path class="cls-8" d="M513.7,254.2c-.3-.3-.5-.8-.5-1.2v-14.3h-2.8c-.2,0-.4,0-.5-.2-.1-.1-.2-.3-.2-.5v-2.5c0-.2,0-.4.2-.5s.3-.2.5-.2h5.3c.5,0,.9.2,1.2.5.3.3.5.8.5,1.2v14.3h2.8c.2,0,.4,0,.5.2.1.1.2.3.2.5v2.5c0,.2,0,.4-.2.5-.1.1-.3.2-.5.2h-5.3c-.5,0-.9-.2-1.2-.5h0ZM513.6,232.1c-.1-.1-.2-.3-.2-.5v-3.8c0-.2,0-.4.2-.5s.3-.2.5-.2h2.4c.2,0,.4,0,.5.2.1.1.2.3.2.5v3.8c0,.2,0,.4-.2.5s-.3.2-.5.2h-2.4c-.2,0-.4,0-.5-.2Z"/>
        <path class="cls-8" d="M525,254.5c-.1-.1-.2-.3-.2-.5v-18.6c0-.2,0-.4.2-.5s.3-.2.5-.2h2.7c.2,0,.4,0,.5.2s.2.3.2.5v1.6c.7-.9,1.4-1.6,2.3-2.1s1.9-.8,3-.8,2.5.3,3.6.9,1.9,1.5,2.5,2.6.9,2.4.9,3.8v12.4c0,.2,0,.4-.2.5-.1.1-.3.2-.5.2h-2.7c-.2,0-.4,0-.5-.2-.1-.1-.2-.3-.2-.5v-11.9c0-1.2-.3-2.2-.9-2.9s-1.5-1-2.7-1-2.5.4-3.3,1.4c-.8.9-1.2,2.1-1.2,3.7v10.7c0,.2,0,.4-.2.5s-.3.2-.5.2h-2.7c-.2,0-.4,0-.5-.2h0Z"/>
        <path class="cls-8" d="M560.7,254.5c-.1-.1-.2-.3-.2-.5v-20.2h-5.9c-.2,0-.4,0-.5-.2s-.2-.3-.2-.5v-2.6c0-.2,0-.4.2-.5s.3-.2.5-.2h16c.2,0,.4,0,.5.2.1.1.2.3.2.5v2.6c0,.2,0,.4-.2.5s-.3.2-.5.2h-5.9v20.2c0,.2,0,.4-.2.5-.1.1-.3.2-.5.2h-2.8c-.2,0-.4,0-.5-.2h0Z"/>
        <path class="cls-8" d="M576.8,253.6c-1.3-.8-2.3-1.8-3-3s-1.1-2.7-1.1-4.2v-3.8c0-1.5.4-2.9,1.1-4.2s1.8-2.3,3-3c1.3-.8,2.7-1.1,4.2-1.1s2.9.4,4.2,1.1,2.3,1.8,3,3,1.1,2.7,1.1,4.2v2.4c0,.4-.2.8-.4,1.1-.3.3-.7.4-1.1.4h-11v.2c0,1.1.4,2.1,1.2,2.9.8.8,1.8,1.2,2.9,1.2h5.6c.2,0,.4,0,.5.2s.2.3.2.5v2.5c0,.2,0,.4-.2.5-.1.1-.3.2-.5.2h-5.6c-1.5,0-2.9-.4-4.2-1.1h0ZM585.1,242.6v-.3c0-1.1-.4-2.1-1.2-2.9-.8-.8-1.8-1.2-2.9-1.2s-2.1.4-2.9,1.2c-.8.8-1.2,1.8-1.2,2.9v.3h8.3Z"/>
        <path class="cls-8" d="M594,253.5c-1.2-1.1-1.8-2.6-1.8-4.3s.6-2.9,1.7-4,2.7-1.8,4.7-2.1c.5,0,1-.1,1.5-.2,1.6-.2,2.6-.3,3-.4.9-.1,1.3-.6,1.3-1.5s-.4-1.6-1.1-2.1-1.6-.8-2.7-.8c-1.9,0-3.3.7-4.1,2.1-.2.3-.4.5-.7.5s-.3,0-.5-.1l-2-1.3c-.2-.1-.3-.3-.3-.6s0-.2,0-.3c.7-1.3,1.7-2.3,3-3s2.8-1.1,4.5-1.1,2.9.3,4.1.9,2.1,1.4,2.7,2.5c.6,1.1,1,2.3,1,3.7v12.7c0,.2,0,.4-.2.5s-.3.2-.5.2h-2.4c-.2,0-.4,0-.5-.2-.1-.1-.2-.3-.2-.5v-1.4c-1.6,1.7-3.5,2.6-5.7,2.6s-3.5-.6-4.8-1.7h0ZM601.7,250.7c.8-.5,1.5-1.1,2-1.8s.8-1.6.8-2.4v-.7l-2.6.4c-1.4.2-2.3.3-2.8.4-1.9.4-2.9,1.2-2.9,2.5s.3,1.3.8,1.7,1.2.6,2.1.6,1.8-.2,2.6-.7h0Z"/>
        <path class="cls-8" d="M613.9,254.5c-.1-.1-.2-.3-.2-.5v-18.6c0-.2,0-.4.2-.5s.3-.2.5-.2h2.7c.2,0,.4,0,.5.2s.2.3.2.5v1.8c.7-1,1.5-1.8,2.4-2.3.9-.5,1.9-.8,2.9-.8s2.4.3,3.4.9,1.8,1.5,2.4,2.6c.7-1.1,1.5-1.9,2.6-2.6,1.1-.6,2.3-.9,3.5-.9,2,0,3.6.7,4.8,2s1.8,3.1,1.8,5.3v12.4c0,.2,0,.4-.2.5s-.3.2-.5.2h-2.7c-.2,0-.4,0-.5-.2-.1-.1-.2-.3-.2-.5v-11.9c0-1.2-.3-2.2-.8-2.9-.6-.7-1.4-1-2.4-1s-2.5.4-3.3,1.4c-.8.9-1.2,2.1-1.2,3.7v10.7c0,.2,0,.4-.2.5-.1.1-.3.2-.5.2h-2.7c-.2,0-.4,0-.5-.2s-.2-.3-.2-.5v-11.9c0-1.2-.3-2.2-.8-2.9-.6-.7-1.4-1-2.4-1s-2.5.4-3.3,1.4c-.8.9-1.2,2.1-1.2,3.7v10.7c0,.2,0,.4-.2.5s-.3.2-.5.2h-2.7c-.2,0-.4,0-.5-.2h0Z"/>
        <path class="cls-8" d="M649.2,254.6c-1.2-.4-2.2-.9-3.1-1.6-.1,0-.2-.2-.2-.4s0-.3,0-.4c.2-.4.6-1.1,1.2-2.2.2-.3.4-.4.7-.4s.3,0,.5.1c.8.6,1.6,1,2.4,1.3.7.3,1.5.4,2.3.4s1.7-.2,2.2-.5.8-.9.8-1.5-.2-1-.7-1.3c-.4-.3-1.3-.7-2.5-1.1l-1.3-.5c-1-.4-1.9-.8-2.6-1.3-.7-.5-1.3-1.1-1.8-1.9s-.8-1.8-.8-3c0-1.8.6-3.3,1.8-4.4,1.2-1.1,2.8-1.6,4.9-1.6s2.4.2,3.5.6c1.1.4,2.2.9,3,1.6.1,0,.2.2.2.4s0,.3,0,.4c-.2.5-.6,1.2-1,2.2-.1.3-.4.4-.7.4s-.3,0-.5-.1c-1.6-1.1-3.1-1.6-4.5-1.6s-1.4.2-1.9.5c-.5.3-.7.8-.7,1.4s.3,1.1.8,1.5,1.5.9,2.8,1.4c1.3.5,2.4.9,3.1,1.3s1.4.9,2,1.7c.6.8.9,1.8.9,3s-.3,2.3-.9,3.2c-.6.9-1.5,1.7-2.6,2.2s-2.4.8-3.8.8-2.5-.2-3.6-.6h0Z"/>
      </g>
      <g>
        <g>
          <path class="cls-15" d="M501.8,47.1h-101.5c-8.8,0-16,7.2-16,16v111.8c0,8.8,7.1,16,16,16h151.7c8.8,0,16-7.1,16-16v-59.6"/>
          <path class="cls-15" d="M384.4,83.8h124"/>
          <path class="cls-12" d="M412.3,69c-1.1,0-2-.9-2-2s.9-2,2-2"/>
          <path class="cls-12" d="M412.3,69c1.1,0,2-.9,2-2s-.9-2-2-2"/>
          <g>
            <path class="cls-12" d="M436.3,69c-1.1,0-2-.9-2-2s.9-2,2-2"/>
            <path class="cls-12" d="M436.3,69c1.1,0,2-.9,2-2s-.9-2-2-2"/>
          </g>
          <g>
            <path class="cls-12" d="M460.2,69c-1.1,0-2-.9-2-2s.9-2,2-2"/>
            <path class="cls-12" d="M460.2,69c1.1,0,2-.9,2-2s-.9-2-2-2"/>
          </g>
        </g>
        <path class="cls-8" d="M580.3,52c-1,0-1.9-.2-2.8-.5-.8-.4-1.6-.9-2.2-1.5-.7-.7-1.2-1.4-1.5-2.2-.4-.9-.5-1.8-.5-2.8s.2-1.9.5-2.7.9-1.6,1.5-2.2c.7-.7,1.4-1.2,2.2-1.5.9-.4,1.8-.6,2.8-.5,1,0,1.9.2,2.7.5.9.4,1.6.9,2.3,1.5.6.6,1.1,1.4,1.5,2.2.4.9.5,1.8.5,2.7s-.2,1.9-.5,2.8c-.4.8-.9,1.6-1.5,2.2-.7.7-1.4,1.2-2.3,1.5s-1.8.5-2.7.5M580.3,41.9c-.8,0-1.6.3-2.2.9-.5.6-.8,1.3-.8,2.1s.3,1.6.8,2.2c.7.5,1.4.8,2.2.8s1.5-.3,2.1-.8c.6-.5.9-1.3.9-2.2s-.3-1.5-.9-2.1c-.6-.6-1.3-.9-2.1-.9M589.4,57v15.1c0,1.4-.3,2.7-.8,3.9-.6,1.2-1.3,2.3-2.2,3.2-.9.9-2,1.7-3.2,2.2-1.3.5-2.6.8-3.9.8s-1.6-.1-2.5-.3c-.8-.2-1.6-.4-2.3-.8-.5,1.7-1.3,3.2-2.3,4.7-1,1.4-2.2,2.6-3.5,3.6-1.4,1-2.8,1.7-4.5,2.3-1.6.6-3.3.9-5.1.9s-4-.3-5.8-1.1c-1.8-.7-3.4-1.7-4.8-3-1.4-1.2-2.6-2.7-3.5-4.4-1-1.7-1.6-3.6-1.8-5.6h-15.6c-.7,0-1.3-.3-1.9-.8-.5-.5-.8-1.1-.8-1.9v-26.9c0-.7.3-1.4.8-1.9.6-.5,1.2-.8,1.9-.8h23.1c-.6-1.3-.9-2.6-.9-4s.2-2.5.7-3.7c.5-1.1,1.1-2.1,2-3,.9-.8,1.9-1.5,3-2,1.1-.5,2.3-.7,3.6-.7s2.5.2,3.7.7,2.1,1.2,3,2c.9.9,1.5,1.9,2,3,.5,1.2.7,2.4.7,3.7s-.2,2.5-.7,3.7c-.5,1.1-1.1,2.1-2,3-.9.9-1.9,1.5-3,2-1.1.5-2.4.7-3.7.7s-.7,0-1,0c-.3,0-.7,0-1-.2v2.9h29.2c.8,0,1.6.3,2.2.9.6.6.9,1.3.9,2.1M559.1,36.6c-.8,0-1.4.1-2,.3-.7.3-1.3.7-1.8,1.2-.5.5-.8,1.1-1.1,1.7-.3.7-.4,1.4-.4,2.1s.1,1.5.4,2.1c.3.7.7,1.2,1.1,1.7.5.5,1.1.9,1.8,1.2.6.3,1.3.4,2,.4s1.4-.1,2.1-.4c.7-.3,1.2-.7,1.7-1.2.5-.5.9-1.1,1.2-1.7.3-.7.5-1.3.5-2.1s-.2-1.4-.5-2.1c-.3-.7-.7-1.2-1.2-1.7-.5-.5-1.1-.9-1.7-1.2-.7-.2-1.3-.3-2.1-.3M543.5,56.6h6.1v-5h-17.2v5h6.1v16.1h5M571.2,76.2v-18.1h-14.1v17.5c0,.7-.3,1.4-.8,1.9-.6.5-1.2.8-1.9.8h-7.3c.3,1.4.8,2.8,1.5,4,.7,1.2,1.6,2.3,2.7,3.2,1,.9,2.2,1.6,3.5,2.1,1.3.4,2.7.7,4.3.7s3.2-.3,4.7-.9c1.5-.7,2.8-1.5,3.9-2.6,1.1-1.1,2-2.4,2.6-3.8.7-1.5,1-3,1-4.7M585.3,72.1v-14h-10.1v18.4c.5.5,1.2.9,1.8,1.2.7.3,1.4.4,2.2.4s1.6-.2,2.4-.5,1.4-.8,1.9-1.3c.6-.5,1-1.2,1.3-1.9.3-.7.5-1.5.5-2.3h0Z"/>
        <g id="UC-UC-Free">
          <g>
            <path class="cls-8" d="M521.1,152.7v-.6c0-.6-.2-1-.6-1.5l-3.2-3.4c-.4-.4-.8-.6-1.3-.6s-.8.2-1.3.6c-2.3,2.5-5.5,3.8-9,3.8s-3.6-.4-5-1.5-2.7-2.3-3.8-4c-.8-1.6-1.5-3.4-1.5-5.2v-15.6c0-1.9.5-3.5,1.5-5.2.5-.7,1-1.3,1.5-2,.7-.8,1.5-1.4,2.3-2,1.5-1,3.1-1.5,5-1.5,3.8,0,6.7,1.5,9,4,.4.4.8.6,1.3.6s.8-.2,1-.4l.2-.2h0s3.1-3.4,3.1-3.4c.4-.4.6-1,.6-1.5s-.2-.8-.4-1.3c-1.9-2.1-4-3.8-6.5-4.8-2.5-1.1-5.5-1.7-8.4-1.7s-6.5.8-9.5,2.5c-2.3,1.3-4.2,3-5.7,5.2-.5.7-1,1.4-1.4,2.1-1.6,2.9-2.5,6.1-2.5,9.7v15.5c0,3.4.8,6.7,2.5,9.7s4,5.2,6.9,7.1c2.3,1.3,4,1.6,6.5,2.1h0l18.4-6.5c0,0,0,0,.1-.2h0Z"/>
            <path class="cls-8" d="M482.3,106.7h-6.1c-.4,0-.8.2-1,.4s-.4.6-.4,1v31.3c0,3.4-1,6.3-2.9,8.4-1.9,2.1-4.4,3.1-7.5,3.1-3.1,0-5.6-1.1-7.5-3.1-1.9-2.1-2.9-5-2.9-8.4v-31.3c0-.4-.2-.8-.4-1-.2-.2-.6-.4-1-.4h-6.1c-.4,0-.8.2-1,.4-.2.2-.4.6-.4,1v30.8c0,4,.8,7.5,2.5,10.7,1.7,3.1,4,5.7,6.9,7.4,2.9,1.9,6.3,2.7,10.1,2.7s6.9-.8,9.8-2.7c2.9-1.7,5.2-4.2,6.9-7.4,1.6-3.1,2.5-6.7,2.5-10.7v-30.8c0-.4-.2-.8-.4-1-.2-.4-.6-.4-1-.4h0Z"/>
            <path class="cls-9" d="M521.7,96.7h0l-87.5-15.7,14.9,99,53.5-20.6h0c-2.5-.4-4.2-.8-6.5-2.1-2.9-1.9-5.2-4.2-6.9-7.1-1.7-2.9-2.5-6.3-2.5-9.7v-15.5c0-3.6.8-6.7,2.5-9.7.4-.7.9-1.4,1.4-2.1,1.5-2.2,3.4-3.9,5.7-5.2,2.9-1.7,6.1-2.5,9.5-2.5s5.9.6,8.4,1.7c2.5,1,4.6,2.7,6.5,4.8.2.4.4.8.4,1.3s-.2,1-.6,1.5l-3.1,3.3s0,0,0,0l-.2.2c-.2.2-.6.4-1,.4s-.8-.2-1.3-.6c-2.3-2.5-5.2-4-9-4s-3.6.4-5,1.5c-.8.6-1.6,1.3-2.3,2-.5.6-1,1.3-1.5,2-1,1.6-1.5,3.3-1.5,5.2v15.6c0,1.9.6,3.6,1.5,5.2,1,1.7,2.3,2.9,3.8,4,1.5,1.1,3.1,1.5,5,1.5,3.6,0,6.7-1.3,9-3.8.4-.4.8-.6,1.3-.6s.8.2,1.3.6l3.1,3.4c.4.4.6.8.6,1.5v.6c0,0,0,.1-.1.2l.5-.2h0l15-5.7-14.7-50.4h0ZM445,139.1v-30.8c0-.4.2-.8.4-1,.2-.2.6-.4,1-.4h6.1c.4,0,.8.2,1,.4.2.2.4.6.4,1v31.3c0,3.4,1,6.3,2.9,8.4,1.9,2.1,4.4,3.1,7.5,3.1,3.1,0,5.6-1.1,7.5-3.1,1.9-2.1,2.9-5,2.9-8.4v-31.3c0-.4.2-.8.4-1s.6-.4,1-.4h6.1c.4,0,.8,0,1,.4.2.2.4.6.4,1v30.8c0,4-.8,7.5-2.5,10.7-1.7,3.1-4,5.7-6.9,7.4-2.9,1.9-6.3,2.7-9.8,2.7s-7.1-.8-10.1-2.7c-2.9-1.7-5.2-4.2-6.9-7.4-1.7-3.2-2.5-6.7-2.5-10.7h0Z"/>
          </g>
        </g>
      </g>
    </g>
    <g>
      <g id="Group-3">
        <path id="Rectangle" class="cls-4" d="M47.8,487.7h859.9v518H47.8V487.7Z"/>
      </g>
      <g>
        <path class="cls-8" d="M346.7,958.4c-.1-.1-.2-.3-.2-.5s0-.2,0-.2l6.5-20c0-.2.2-.4.3-.5s.4-.2.6-.2h2.3c.2,0,.4,0,.6.2s.3.3.3.5l6.5,20c0,0,0,.1,0,.2,0,.2,0,.4-.2.5s-.3.2-.5.2h-2.2c-.2,0-.4,0-.6-.2s-.3-.3-.3-.5l-1.4-4.3h-7l-1.4,4.3c0,.2-.2.4-.4.5s-.4.2-.6.2h-2.1c-.2,0-.4,0-.5-.2h0ZM357.6,950.2l-2.5-8-2.5,8h4.9,0Z"/>
        <path class="cls-8" d="M367.9,958.5c-.4,0-.8-.2-1.1-.5-.3-.3-.5-.7-.5-1.2s0-.6.2-.8l7.5-11.2h-6.8c-.2,0-.3,0-.5-.2-.1-.1-.2-.3-.2-.5v-2.2c0-.2,0-.3.2-.5s.3-.2.5-.2h10.1c.5,0,.8.2,1.2.5.3.3.5.7.5,1.2s0,.6-.2.8l-7.6,11.2h7.3c.2,0,.3,0,.5.2s.2.3.2.5v2.1c0,.2,0,.4-.2.5-.1.1-.3.2-.5.2h-10.6Z"/>
        <path class="cls-8" d="M385.4,958.2c-.9-.5-1.6-1.3-2.1-2.2s-.8-2-.8-3.2v-10.7c0-.2,0-.3.2-.5s.3-.2.5-.2h2.3c.2,0,.3,0,.5.2.1.1.2.3.2.5v10.2c0,1.1.3,1.9.8,2.4.5.6,1.3.9,2.3.9s2.1-.4,2.8-1.2c.7-.8,1-1.8,1-3.2v-9.2c0-.2,0-.3.2-.5s.3-.2.5-.2h2.3c.2,0,.3,0,.5.2s.2.3.2.5v15.9c0,.2,0,.3-.2.5s-.3.2-.5.2h-2.3c-.2,0-.3,0-.5-.2-.1-.1-.2-.3-.2-.5v-1.4c-.6.8-1.2,1.4-2,1.8-.8.4-1.6.7-2.5.7s-2.2-.3-3.1-.8h0Z"/>
        <path class="cls-8" d="M400.9,958.4c-.1-.1-.2-.3-.2-.5v-2.2c0-.2,0-.3.2-.5s.3-.2.5-.2h2.3v-10.3h-2.6c-.2,0-.3,0-.5-.2s-.2-.3-.2-.5v-2.1c0-.2,0-.3.2-.5s.3-.2.5-.2h4.6c.4,0,.7.1.9.4s.4.5.4.9v1.1l1.6-1.3c.6-.5,1.1-.8,1.6-1s1-.3,1.6-.3h.9c.2,0,.3,0,.5.2s.2.3.2.5v2.3c0,.2,0,.3-.2.5s-.3.2-.5.2h-.8c-.5,0-1,0-1.4.3s-1,.6-1.7,1.2l-1.6,1.3v7.6h3c.2,0,.3,0,.5.2s.2.3.2.5v2.2c0,.2,0,.3-.2.5s-.3.2-.5.2h-8.8c-.2,0-.3,0-.5-.2h0Z"/>
        <path class="cls-8" d="M419,957.6c-1.1-.6-2-1.5-2.6-2.6-.6-1.1-1-2.3-1-3.6v-3.2c0-1.3.3-2.5,1-3.6.6-1.1,1.5-2,2.6-2.6s2.3-1,3.6-1,2.5.3,3.6,1c1.1.6,2,1.5,2.6,2.6s1,2.3,1,3.6v2c0,.4-.1.7-.4.9-.2.2-.6.4-.9.4h-9.4v.2c0,1,.4,1.8,1,2.5s1.5,1,2.5,1h4.8c.2,0,.3,0,.5.2.1.1.2.3.2.5v2.2c0,.2,0,.3-.2.5s-.3.2-.5.2h-4.8c-1.3,0-2.5-.3-3.6-1h0ZM426.1,948.2v-.3c0-1-.3-1.8-1-2.5s-1.5-1-2.5-1-1.8.3-2.5,1-1,1.5-1,2.5v.3h7.1Z"/>
        <path class="cls-8" d="M439.9,958.4c-.1-.1-.2-.3-.2-.5s0-.2,0-.2l6.5-20c0-.2.2-.4.3-.5s.4-.2.6-.2h2.3c.2,0,.4,0,.6.2s.3.3.3.5l6.5,20c0,0,0,.1,0,.2,0,.2,0,.4-.2.5s-.3.2-.5.2h-2.2c-.2,0-.4,0-.6-.2s-.3-.3-.3-.5l-1.4-4.3h-7l-1.4,4.3c0,.2-.2.4-.4.5s-.4.2-.6.2h-2.1c-.2,0-.4,0-.5-.2h0ZM450.8,950.2l-2.5-8-2.5,8h4.9,0Z"/>
        <path class="cls-8" d="M460.4,964.2c-.1-.1-.2-.3-.2-.5v-21.7c0-.2,0-.3.2-.5s.3-.2.5-.2h2c.2,0,.3,0,.5.2s.2.3.2.5v1.3c.5-.8,1.2-1.4,1.9-1.8s1.6-.6,2.5-.6,2.3.3,3.3,1,1.9,1.5,2.5,2.5.9,2.2.9,3.4v4.2c0,1.2-.3,2.4-.9,3.4s-1.4,1.9-2.4,2.5-2.1,1-3.4,1-1.5-.2-2.1-.5c-.7-.3-1.3-.8-1.9-1.3v6.6c0,.2,0,.3-.2.5s-.3.2-.5.2h-2.3c-.2,0-.3,0-.5-.2h0ZM469.9,954.5c.7-.7,1-1.5,1-2.5v-4c0-1-.3-1.8-1-2.5-.7-.7-1.5-1-2.5-1s-1.8.3-2.5,1c-.7.7-1,1.5-1,2.5v4c0,1,.4,1.8,1,2.5.7.7,1.5,1,2.5,1s1.8-.3,2.5-1Z"/>
        <path class="cls-8" d="M478.8,964.2c-.1-.1-.2-.3-.2-.5v-21.7c0-.2,0-.3.2-.5s.3-.2.5-.2h2c.2,0,.3,0,.5.2s.2.3.2.5v1.3c.5-.8,1.2-1.4,1.9-1.8s1.6-.6,2.5-.6,2.3.3,3.3,1,1.9,1.5,2.5,2.5.9,2.2.9,3.4v4.2c0,1.2-.3,2.4-.9,3.4s-1.4,1.9-2.4,2.5-2.1,1-3.4,1-1.5-.2-2.1-.5c-.7-.3-1.3-.8-1.9-1.3v6.6c0,.2,0,.3-.2.5s-.3.2-.5.2h-2.3c-.2,0-.3,0-.5-.2h0ZM488.3,954.5c.7-.7,1-1.5,1-2.5v-4c0-1-.3-1.8-1-2.5-.7-.7-1.5-1-2.5-1s-1.8.3-2.5,1c-.7.7-1,1.5-1,2.5v4c0,1,.4,1.8,1,2.5.7.7,1.5,1,2.5,1s1.8-.3,2.5-1Z"/>
        <path class="cls-8" d="M506.9,958.4c-1-.3-2-.8-2.9-1.5-.1,0-.2-.2-.2-.3,0-.2,0-.3,0-.4l1-1.9c.1-.2.3-.4.6-.4s.3,0,.5.1c1.5.9,2.9,1.4,4.2,1.4s1.9-.2,2.5-.8c.6-.5.9-1.2.9-2s-.2-1-.5-1.4-.7-.7-1.2-1c-.5-.3-1.2-.6-2.2-1l-.9-.4c-1.4-.6-2.5-1.3-3.4-2.2-.9-.9-1.4-2.2-1.4-4s.3-2.3.8-3.2c.5-.9,1.3-1.7,2.3-2.2,1-.5,2.1-.8,3.4-.8s2.1.2,3.2.5,2,.8,2.8,1.5c0,0,.2.2.2.3,0,.2,0,.3,0,.4l-1,1.9c-.1.2-.3.4-.6.4s-.3,0-.5-.1c-.8-.5-1.5-.9-2.2-1.1-.7-.2-1.3-.3-1.9-.3-.9,0-1.6.2-2.1.7-.5.5-.8,1.1-.8,1.9s.3,1.4.9,1.9c.6.5,1.5,1,2.8,1.5.2,0,.9.3,2.1.8,1.2.5,2.1,1.2,2.8,2.2s1,2,1,3.3-.3,2.3-.9,3.3-1.4,1.7-2.5,2.3c-1.1.5-2.3.8-3.7.8s-2.1-.2-3.2-.5h0Z"/>
        <path class="cls-8" d="M524,957.6c-1.1-.6-2-1.5-2.6-2.6-.6-1.1-1-2.3-1-3.6v-3.2c0-1.3.3-2.5,1-3.6s1.5-2,2.6-2.6,2.3-1,3.6-1,2.5.3,3.6,1c1.1.6,2,1.5,2.6,2.6.6,1.1,1,2.3,1,3.6v2c0,.4-.1.7-.4.9-.2.2-.6.4-.9.4h-9.4v.2c0,1,.3,1.8,1,2.5s1.5,1,2.5,1h4.8c.2,0,.3,0,.5.2s.2.3.2.5v2.2c0,.2,0,.3-.2.5s-.3.2-.5.2h-4.8c-1.3,0-2.5-.3-3.6-1h0ZM531.1,948.2v-.3c0-1-.3-1.8-1-2.5s-1.5-1-2.5-1-1.8.3-2.5,1-1,1.5-1,2.5v.3h7.1Z"/>
        <path class="cls-8" d="M537.9,958.4c-.1-.1-.2-.3-.2-.5v-2.2c0-.2,0-.3.2-.5s.3-.2.5-.2h2.3v-10.3h-2.6c-.2,0-.3,0-.5-.2s-.2-.3-.2-.5v-2.1c0-.2,0-.3.2-.5s.3-.2.5-.2h4.7c.4,0,.7.1.9.4s.4.5.4.9v1.1l1.6-1.3c.6-.5,1.1-.8,1.6-1s1-.3,1.6-.3h.9c.2,0,.3,0,.5.2s.2.3.2.5v2.3c0,.2,0,.3-.2.5s-.3.2-.5.2h-.8c-.5,0-1,0-1.3.3s-1,.6-1.7,1.2l-1.7,1.3v7.6h3c.2,0,.3,0,.5.2s.2.3.2.5v2.2c0,.2,0,.3-.2.5s-.3.2-.5.2h-8.8c-.2,0-.3,0-.5-.2h0Z"/>
        <path class="cls-8" d="M559.4,958.8c-.5,0-.8-.2-.9-.6l-5.5-15.8c0-.1,0-.2,0-.3,0-.2,0-.4.2-.5.1-.1.3-.2.5-.2h2.1c.2,0,.4,0,.6.2.2.1.3.3.3.5l4,12.1,4-12.1c0-.2.2-.4.3-.5.2-.1.3-.2.5-.2h2c.2,0,.4,0,.5.2.1.1.2.3.2.5s0,.2,0,.3l-5.5,15.8c0,.2-.2.4-.4.5s-.4.2-.5.2h-2.4s0,0,0,0Z"/>
        <path class="cls-8" d="M574.5,958.1c-.3-.3-.4-.7-.4-1.1v-12.3h-2.4c-.2,0-.3,0-.5-.2s-.2-.3-.2-.5v-2.2c0-.2,0-.3.2-.5s.3-.2.5-.2h4.5c.4,0,.8.1,1.1.4s.4.7.4,1.1v12.3h2.4c.2,0,.3,0,.5.2s.2.3.2.5v2.2c0,.2,0,.3-.2.5s-.3.2-.5.2h-4.5c-.4,0-.8-.1-1.1-.4ZM574.4,939.2c-.1-.1-.2-.3-.2-.5v-3.3c0-.2,0-.3.2-.5s.3-.2.5-.2h2c.2,0,.3,0,.5.2s.2.3.2.5v3.3c0,.2,0,.3-.2.5s-.3.2-.5.2h-2c-.2,0-.3,0-.5-.2Z"/>
        <path class="cls-8" d="M586.6,958c-1.1-.6-2-1.5-2.6-2.6-.6-1.1-1-2.3-1-3.6v-3.6c0-1.3.3-2.5,1-3.6s1.5-2,2.6-2.6,2.3-1,3.6-1,2,.2,2.9.6,1.7,1,2.4,1.7c.1.1.2.3.2.5s0,.4-.3.6l-1.3,1.3c-.1.1-.3.2-.5.2s-.3,0-.5-.3c-.8-.8-1.8-1.2-2.9-1.2s-1.8.3-2.5,1-1,1.5-1,2.5v3.9c0,1,.3,1.8,1,2.5s1.5,1,2.5,1,2.1-.4,2.9-1.2c.2-.2.3-.3.5-.3s.3,0,.5.2l1.3,1.3c.2.2.3.4.3.6s0,.3-.2.5c-.7.7-1.5,1.3-2.4,1.7s-1.9.6-2.9.6-2.5-.3-3.6-1h0Z"/>
        <path class="cls-8" d="M602,957.6c-1.1-.6-2-1.5-2.6-2.6-.6-1.1-1-2.3-1-3.6v-3.2c0-1.3.3-2.5,1-3.6s1.5-2,2.6-2.6,2.3-1,3.6-1,2.5.3,3.6,1c1.1.6,2,1.5,2.6,2.6.6,1.1,1,2.3,1,3.6v2c0,.4-.1.7-.4.9-.2.2-.6.4-.9.4h-9.4v.2c0,1,.3,1.8,1,2.5s1.5,1,2.5,1h4.8c.2,0,.3,0,.5.2s.2.3.2.5v2.2c0,.2,0,.3-.2.5s-.3.2-.5.2h-4.8c-1.3,0-2.5-.3-3.6-1h0ZM609.1,948.2v-.3c0-1-.3-1.8-1-2.5s-1.5-1-2.5-1-1.8.3-2.5,1-1,1.5-1,2.5v.3h7.1Z"/>
      </g>
      <g>
        <path class="cls-8" d="M542.9,601.9h0l-168.2-30.3,28.6,190.4,102.8-39.6h0c-4.8-.8-8-1.5-12.4-4-5.6-3.6-10-8.1-13.3-13.8-3.3-5.6-4.8-12.2-4.8-18.6v-29.8c0-6.9,1.6-12.9,4.8-18.6.8-1.5,1.7-2.8,2.6-4,2.9-4.2,6.6-7.5,11-10,5.6-3.3,11.7-4.8,18.2-4.8s11.3,1.2,16.1,3.3c4.8,2,8.9,5.3,12.5,9.3.4.8.8,1.6.8,2.5s-.4,2-1.2,2.8l-6.1,6.4s0,0,0,0l-.3.3c-.4.4-1.2.8-2,.8s-1.6-.4-2.5-1.2c-4.5-4.7-10.1-7.6-17.4-7.6s-6.9.8-9.7,2.8c-1.6,1.2-3,2.5-4.4,3.9-1,1.2-2,2.5-2.9,3.8-2,3.1-2.8,6.3-2.8,9.9v30.1c0,3.6,1.2,6.9,2.8,10,2,3.3,4.4,5.6,7.2,7.7s6.1,2.8,9.7,2.8c6.9,0,12.9-2.5,17.3-7.2.8-.8,1.6-1.2,2.5-1.2s1.6.4,2.5,1.2l6.1,6.4c.8.8,1.2,1.6,1.2,2.8v1.2c0,.1-.1.3-.2.3l1-.3h0l28.7-10.8-28.3-96.8h0ZM395.3,683.3v-59.3c0-.8.4-1.6.8-2,.4-.4,1.2-.8,2-.8h11.7c.8,0,1.6.4,2,.8.4.4.8,1.2.8,2v60.1c0,6.4,2,12.2,5.6,16.1,3.5,4,8.3,6,14.4,6,6,0,10.7-2.1,14.4-6,3.6-4,5.6-9.7,5.6-16.1v-60.1c0-.8.4-1.6.8-2,.4-.4,1.2-.8,2-.8h11.7c.8,0,1.6,0,2,.8.4.4.8,1.2.8,2v59.3c0,7.7-1.6,14.5-4.8,20.5-3.3,6.1-7.7,10.8-13.3,14.2-5.6,3.6-12.2,5.3-18.9,5.3s-13.8-1.6-19.3-5.3c-5.6-3.3-10-8.1-13.3-14.2-3.3-6.1-4.9-13-4.9-20.5h0Z"/>
        <g>
          <path class="cls-8" d="M289.3,835c-1.5-.9-2.7-2.1-3.5-3.7s-1.3-3.5-1.3-5.5v-17.2c0-.2,0-.3.2-.4s.2-.2.4-.2h2.2c.2,0,.3,0,.4.2s.2.2.2.4v17.4c0,1.4.3,2.7.9,3.8.6,1.1,1.4,1.9,2.3,2.5s2.1.9,3.4.9,2.3-.3,3.3-.9c1-.6,1.8-1.4,2.3-2.5s.9-2.4.9-3.8v-17.4c0-.2,0-.3.2-.4.1-.1.2-.2.4-.2h2.2c.2,0,.3,0,.4.2s.2.2.2.4v17.2c0,2-.4,3.9-1.3,5.5s-2,2.9-3.5,3.7-3.1,1.3-5,1.3-3.5-.4-5-1.3h0Z"/>
          <path class="cls-8" d="M311.9,835.6c-.1-.1-.2-.2-.2-.4v-21.5c0-.2,0-.3.2-.4.1-.1.2-.2.4-.2h2c.2,0,.3,0,.4.2s.2.2.2.4v2.2c.7-1.1,1.6-1.9,2.7-2.5,1.1-.6,2.4-.8,3.7-.8,2.3,0,4.1.7,5.5,2.1s2.1,3.2,2.1,5.5v15c0,.2,0,.3-.2.4-.1.1-.2.2-.4.2h-2c-.2,0-.3,0-.4-.2s-.2-.2-.2-.4v-14.4c0-1.7-.5-3-1.3-3.9-.9-.9-2.1-1.3-3.6-1.3s-3.2.6-4.3,1.8-1.6,2.8-1.6,4.8v13.1c0,.2,0,.3-.2.4-.1.1-.2.2-.4.2h-2c-.2,0-.3,0-.4-.2Z"/>
          <path class="cls-8" d="M339.2,835.4c-.3-.3-.4-.6-.4-1v-18.2h-4.2c-.2,0-.3,0-.4-.2s-.2-.2-.2-.4v-1.8c0-.2,0-.3.2-.4.1-.1.2-.2.4-.2h5.8c.4,0,.7.1,1,.4.3.3.4.6.4,1v18.2h4.1c.2,0,.3,0,.4.2s.2.2.2.4v1.8c0,.2,0,.3-.2.4-.1.1-.2.2-.4.2h-5.8c-.4,0-.7-.1-1-.4ZM339,809.9c-.1-.1-.2-.2-.2-.4v-3.5c0-.2,0-.3.2-.4.1-.1.2-.2.4-.2h1.9c.2,0,.3,0,.4.2s.2.2.2.4v3.5c0,.2,0,.3-.2.4s-.2.2-.4.2h-1.9c-.2,0-.3,0-.4-.2Z"/>
          <path class="cls-8" d="M353.4,835.6c-.1-.1-.2-.2-.2-.4v-19.1h-3c-.2,0-.3,0-.4-.2s-.2-.2-.2-.4v-1.8c0-.2,0-.3.2-.4.1-.1.2-.2.4-.2h3v-1.6c0-1.8.5-3.2,1.6-4.4s2.6-1.7,4.5-1.7h3.2c.2,0,.3,0,.4.2s.2.2.2.4v1.7c0,.2,0,.3-.2.4s-.2.2-.4.2h-3.2c-.9,0-1.6.3-2.2.9s-.8,1.3-.8,2.3v1.8h14.6c.4,0,.7.1,1,.4s.4.6.4,1v18.2h4.1c.2,0,.3,0,.4.2s.2.2.2.4v1.8c0,.2,0,.3-.2.4-.1.1-.2.2-.4.2h-5.8c-.4,0-.7-.1-1-.4s-.4-.6-.4-1v-18.2h-13v19.1c0,.2,0,.3-.2.4-.1.1-.2.2-.4.2h-2c-.2,0-.3,0-.4-.2h0ZM369.5,809.1c-.1-.1-.2-.2-.2-.4v-3.5c0-.2,0-.3.2-.4.1-.1.2-.2.4-.2h1.9c.2,0,.3,0,.4.2s.2.2.2.4v3.5c0,.2,0,.3-.2.4s-.2.2-.4.2h-1.9c-.2,0-.3,0-.4-.2Z"/>
          <path class="cls-8" d="M385.4,834.6c-1.3-.8-2.4-1.8-3.2-3.2s-1.2-2.8-1.2-4.4v-5.7c0-1.6.4-3,1.2-4.4s1.8-2.4,3.2-3.2,2.8-1.2,4.4-1.2,3,.4,4.4,1.2c1.3.8,2.4,1.8,3.2,3.2s1.2,2.8,1.2,4.4v2.7c0,.4-.1.7-.4,1s-.6.4-1,.4h-12.8v1.8c0,1,.2,2,.7,2.8s1.2,1.5,2,2c.9.5,1.8.7,2.8.7h5.8c.2,0,.3,0,.4.2s.2.2.2.4v1.8c0,.2,0,.3-.2.4s-.2.2-.4.2h-5.8c-1.6,0-3-.4-4.4-1.2h0ZM395.3,822.6v-1.5c0-1-.2-2-.7-2.8s-1.2-1.5-2-2c-.9-.5-1.8-.7-2.8-.7s-2,.2-2.8.7c-.9.5-1.5,1.2-2,2-.5.8-.7,1.8-.7,2.8v1.5h11.1,0Z"/>
          <path class="cls-8" d="M407.9,835.2c-1.3-.8-2.3-1.8-3-3-.8-1.3-1.1-2.7-1.1-4.2v-7c0-1.5.4-2.9,1.1-4.2s1.8-2.3,3.1-3,2.7-1.1,4.2-1.1,2.1.2,3.2.6c1,.4,1.9,1,2.7,1.7v-8.9c0-.2,0-.3.2-.4.1-.1.2-.2.4-.2h2c.2,0,.3,0,.4.2s.2.2.2.4v29.2c0,.2,0,.3-.2.4-.1.1-.2.2-.4.2h-1.8c-.2,0-.3,0-.4-.2s-.2-.2-.2-.4v-1.8c-.8.9-1.6,1.6-2.7,2.1s-2.2.7-3.4.7-2.9-.4-4.2-1.1h0ZM415.2,832.6c.9-.5,1.5-1.2,2-2,.5-.8.7-1.8.7-2.8v-6.6c0-1-.2-2-.7-2.8s-1.2-1.5-2-2-1.8-.7-2.8-.7-2,.2-2.8.7c-.9.5-1.5,1.2-2,2-.5.8-.7,1.8-.7,2.8v6.6c0,1,.2,2,.7,2.8s1.2,1.5,2,2c.9.5,1.8.7,2.8.7s2-.2,2.8-.7Z"/>
          <path class="cls-8" d="M443.9,835c-1.5-.9-2.6-2.1-3.5-3.6s-1.3-3.1-1.3-4.9v-9.4c0-1.8.4-3.4,1.3-4.9s2-2.7,3.5-3.6,3.1-1.3,4.8-1.3,2.7.2,4,.7c1.2.5,2.3,1.2,3.2,2.1.1.1.2.3.2.5s0,.4-.2.5c-.6.6-.9,1-1.1,1.2-.2.1-.4.2-.6.2s-.4,0-.6-.3c-1.3-1.3-3-1.9-4.9-1.9s-2.2.3-3.2.9-1.7,1.4-2.3,2.5-.8,2.1-.8,3.3v9.4c0,1.2.3,2.3.8,3.3.6,1,1.3,1.8,2.3,2.5,1,.6,2,.9,3.2.9,2,0,3.6-.6,4.9-1.9.2-.2.4-.3.6-.3s.4,0,.6.2c.2.2.5.6,1.1,1.2.1.1.2.3.2.5s0,.3-.2.5c-.9.9-2,1.7-3.2,2.1-1.2.5-2.5.7-4,.7s-3.3-.4-4.8-1.3Z"/>
          <path class="cls-8" d="M465.3,835.2c-1.3-.8-2.4-1.8-3.2-3.2s-1.2-2.8-1.2-4.4v-6.2c0-1.6.4-3,1.2-4.4s1.8-2.4,3.2-3.2c1.3-.8,2.8-1.2,4.4-1.2s3,.4,4.4,1.2,2.4,1.8,3.2,3.2,1.2,2.8,1.2,4.4v6.2c0,1.6-.4,3-1.2,4.4s-1.8,2.4-3.2,3.2c-1.3.8-2.8,1.2-4.4,1.2s-3-.4-4.4-1.2ZM472.5,832.6c.9-.5,1.5-1.2,2-2,.5-.8.7-1.8.7-2.8v-6.6c0-1-.2-2-.7-2.8s-1.2-1.5-2-2c-.9-.5-1.8-.7-2.8-.7s-2,.2-2.8.7c-.9.5-1.5,1.2-2,2-.5.8-.7,1.8-.7,2.8v6.6c0,1,.2,2,.7,2.8s1.2,1.5,2,2c.9.5,1.8.7,2.8.7s2-.2,2.8-.7Z"/>
          <path class="cls-8" d="M485.1,835.6c-.1-.1-.2-.2-.2-.4v-21.5c0-.2,0-.3.2-.4.1-.1.2-.2.4-.2h2c.2,0,.3,0,.4.2s.2.2.2.4v2.2c.7-1.1,1.6-1.9,2.7-2.5,1.1-.6,2.4-.8,3.7-.8,2.3,0,4.1.7,5.5,2.1s2.1,3.2,2.1,5.5v15c0,.2,0,.3-.2.4-.1.1-.2.2-.4.2h-2c-.2,0-.3,0-.4-.2s-.2-.2-.2-.4v-14.4c0-1.7-.5-3-1.3-3.9-.9-.9-2.1-1.3-3.6-1.3s-3.2.6-4.3,1.8-1.6,2.8-1.6,4.8v13.1c0,.2,0,.3-.2.4-.1.1-.2.2-.4.2h-2c-.2,0-.3,0-.4-.2Z"/>
          <path class="cls-8" d="M511.8,834.1c-1.1-1.2-1.6-2.6-1.6-4.4v-13.6h-2.6c-.2,0-.3,0-.4-.2s-.2-.2-.2-.4v-1.8c0-.2,0-.3.2-.4.1-.1.2-.2.4-.2h2.6v-4.2c0-.2,0-.3.2-.4.1-.1.2-.2.4-.2h2c.2,0,.3,0,.4.2.1.1.2.2.2.4v4.2h7c.2,0,.3,0,.4.2.1.1.2.2.2.4v1.8c0,.2,0,.3-.2.4-.1.1-.2.2-.4.2h-7v13.2c0,1,.3,1.9.9,2.5s1.5,1,2.5,1h3.6c.2,0,.3,0,.4.2.1.1.2.2.2.4v1.8c0,.2,0,.3-.2.4-.1.1-.2.2-.4.2h-4c-1.9,0-3.4-.6-4.5-1.7h0Z"/>
          <path class="cls-8" d="M527.2,834.6c-1.3-1.2-2-2.7-2-4.6s.6-3.2,1.8-4.4c1.2-1.2,2.8-1.9,5-2.2l5.2-.7c.8-.1,1.3-.4,1.7-.8.3-.4.5-1,.5-1.8v-.3c0-1.3-.5-2.3-1.5-3.1s-2.2-1.2-3.7-1.2-2.2.2-3.1.7c-.9.5-1.5,1.1-2.1,1.9-.2.3-.5.5-.8.5s-.3,0-.5-.2l-1.1-.7c-.2-.2-.4-.4-.4-.7s0-.2.1-.4c.8-1.3,1.8-2.3,3.2-3s2.9-1.1,4.7-1.1,3,.3,4.3.9c1.2.6,2.2,1.5,2.9,2.5.7,1.1,1,2.4,1,3.8v15.4c0,.2,0,.3-.2.4-.1.1-.2.2-.4.2h-1.7c-.2,0-.3,0-.4-.2-.1-.1-.2-.2-.2-.4v-2.8c-.8,1.2-1.9,2.1-3.2,2.8s-2.7,1-4.2,1-3.7-.6-5-1.7h0ZM536.1,832.5c1.1-.7,1.9-1.6,2.5-2.6s.9-2.1.9-3.1v-1.6c-.6,0-2.7.4-6.2.8l-1.1.2c-2.7.4-4,1.7-4,3.8s.4,2,1.2,2.6c.8.7,1.8,1,3.1,1s2.5-.3,3.6-1h0Z"/>
          <path class="cls-8" d="M553.3,835.2c-1.3-.8-2.4-1.8-3.2-3.2-.8-1.3-1.2-2.8-1.2-4.4v-6.2c0-1.6.4-3,1.2-4.4.8-1.3,1.8-2.4,3.2-3.2,1.3-.8,2.8-1.2,4.4-1.2s2.2.2,3.3.6,1.9,1,2.7,1.8c.2.2.2.3.2.6s0,.4-.2.6c-.3.3-.6.6-.9.9-.2.2-.4.2-.6.2s-.5,0-.6-.3c-1.1-1-2.3-1.5-3.8-1.5s-2,.2-2.8.7-1.5,1.2-2,2c-.5.8-.7,1.8-.7,2.8v6.6c0,1,.2,2,.7,2.8s1.2,1.5,2,2c.8.5,1.8.7,2.8.7,1.5,0,2.7-.5,3.8-1.5.2-.2.4-.3.6-.3s.4,0,.6.2c.3.3.6.6.9.9.2.2.2.4.2.6s0,.4-.2.6c-.8.8-1.7,1.3-2.7,1.8s-2.1.6-3.3.6-3-.4-4.4-1.2Z"/>
          <path class="cls-8" d="M573,834.1c-1.1-1.2-1.6-2.6-1.6-4.4v-13.6h-2.6c-.2,0-.3,0-.4-.2s-.2-.2-.2-.4v-1.8c0-.2,0-.3.2-.4.1-.1.2-.2.4-.2h2.6v-4.2c0-.2,0-.3.2-.4.1-.1.2-.2.4-.2h2c.2,0,.3,0,.4.2.1.1.2.2.2.4v4.2h7c.2,0,.3,0,.4.2.1.1.2.2.2.4v1.8c0,.2,0,.3-.2.4-.1.1-.2.2-.4.2h-7v13.2c0,1,.3,1.9.9,2.5s1.5,1,2.5,1h3.6c.2,0,.3,0,.4.2.1.1.2.2.2.4v1.8c0,.2,0,.3-.2.4-.1.1-.2.2-.4.2h-4c-1.9,0-3.4-.6-4.5-1.7h0Z"/>
          <path class="cls-8" d="M590.1,835.7c-1.2-.3-2.2-.8-3-1.4-.1,0-.2-.1-.2-.3s0-.2,0-.4l.8-1.7c.1-.2.3-.3.5-.3s.2,0,.3,0c1.8,1.1,3.5,1.6,5.3,1.6s2.5-.3,3.3-.9,1.2-1.5,1.2-2.7-.2-1.3-.5-1.7-.8-.8-1.4-1.1c-.6-.3-1.5-.7-2.8-1.1-1.6-.6-2.9-1.2-3.8-1.7-.9-.5-1.7-1.2-2.2-2-.5-.8-.8-1.9-.8-3.2,0-2,.7-3.6,2-4.7s3.1-1.6,5.2-1.6,2.2.2,3.3.5c1.1.3,2.1.8,3,1.4.1,0,.2.2.2.3s0,.2,0,.4l-.8,1.6c0,.2-.2.3-.3.3-.2,0-.3,0-.5,0-1.7-1-3.3-1.5-4.9-1.5s-2.3.3-3.1.8-1.1,1.4-1.1,2.4.2,1.5.6,2c.4.5.9.9,1.4,1.1s1.5.6,2.7,1.1c1.6.6,2.8,1.1,3.7,1.6s1.7,1.1,2.2,1.9c.6.8.9,1.8.9,3.1,0,2-.7,3.7-2.1,4.9s-3.3,1.8-5.7,1.8-2.4-.2-3.6-.5h0Z"/>
          <path class="cls-8" d="M618.8,835.6c-.1-.1-.2-.2-.2-.4v-25.8c0-.4.1-.7.4-1,.3-.3.6-.4,1-.4h6.7c1.6,0,3.1.4,4.4,1.2,1.3.8,2.4,1.8,3.2,3.1.8,1.3,1.2,2.8,1.2,4.3s-.4,3-1.2,4.3c-.8,1.3-1.8,2.3-3.2,3.1-1.3.8-2.8,1.2-4.4,1.2h-4.9v10c0,.2,0,.3-.2.4-.1.1-.2.2-.4.2h-2.2c-.2,0-.3,0-.4-.2h0ZM626.6,822.1c1,0,2-.2,2.8-.7s1.5-1.2,2-2c.5-.8.7-1.8.7-2.8s-.2-1.9-.7-2.8-1.2-1.5-2-2c-.8-.5-1.8-.7-2.8-.7h-4.7v11h4.7Z"/>
          <path class="cls-8" d="M640.3,835.6c-.1-.1-.2-.2-.2-.4v-1.8c0-.2,0-.3.2-.4.1-.1.2-.2.4-.2h3.3v-16.8h-3.3c-.2,0-.3,0-.4-.2-.1-.1-.2-.2-.2-.4v-1.7c0-.2,0-.3.2-.4.1-.1.2-.2.4-.2h5c.4,0,.7.1,1,.4.3.3.4.6.4,1v2l2.3-1.8c1-.8,1.7-1.2,2.3-1.5.6-.2,1.2-.4,1.9-.4h1.2c.2,0,.3,0,.4.2s.1.2.1.4v2c0,.2,0,.3-.2.4-.1.1-.2.2-.4.2h-.9c-.7,0-1.3.1-1.9.4-.6.3-1.5.9-2.6,1.8l-2.4,1.9v12.7h4.6c.2,0,.3,0,.4.2s.2.2.2.4v1.8c0,.2,0,.3-.2.4-.1.1-.2.2-.4.2h-11.1c-.2,0-.3,0-.4-.2h0Z"/>
          <path class="cls-8" d="M663.3,835.2c-1.3-.8-2.4-1.8-3.2-3.2-.8-1.3-1.2-2.8-1.2-4.4v-6.2c0-1.6.4-3,1.2-4.4.8-1.3,1.8-2.4,3.2-3.2,1.3-.8,2.8-1.2,4.4-1.2s3,.4,4.4,1.2,2.4,1.8,3.2,3.2c.8,1.3,1.2,2.8,1.2,4.4v6.2c0,1.6-.4,3-1.2,4.4-.8,1.3-1.8,2.4-3.2,3.2-1.3.8-2.8,1.2-4.4,1.2s-3-.4-4.4-1.2ZM670.5,832.6c.8-.5,1.5-1.2,2-2,.5-.8.7-1.8.7-2.8v-6.6c0-1-.2-2-.7-2.8s-1.2-1.5-2-2c-.8-.5-1.8-.7-2.8-.7s-2,.2-2.8.7-1.5,1.2-2,2c-.5.8-.7,1.8-.7,2.8v6.6c0,1,.2,2,.7,2.8s1.2,1.5,2,2c.8.5,1.8.7,2.8.7s2-.2,2.8-.7Z"/>
          <path class="cls-8" d="M291.9,890l-3.1-4.8c-1.8.8-3.6,1.1-5.6,1.1s-4.9-.7-6.5-1.9-2.5-3.1-2.5-5.4.4-2.9,1.3-4.1c.9-1.2,2.2-2.5,4.1-4-.8-1.2-1.3-2.4-1.8-3.5-.4-1.1-.7-2.2-.7-3.4s.3-2.5.9-3.4,1.4-1.8,2.4-2.3,2-.8,3.2-.8,2.1.2,3,.7,1.6,1.1,2.1,1.9.8,1.7.8,2.7-.5,2.6-1.5,3.9-2.5,2.8-4.5,4.5l6.4,10c1.3-1,2.3-2.3,3.1-3.8s1.1-3.1,1.1-4.8,0-.3.2-.4c.1-.1.2-.2.4-.2h1.9c.2,0,.3,0,.4.2s.2.2.2.4c0,2.3-.5,4.4-1.5,6.3-1,1.9-2.4,3.5-4.2,4.8l2.4,3.7c.8,1.2,1.6,2.1,2.3,2.5s1.6.7,2.9.7h1.1c.2,0,.3,0,.4.2s.2.2.2.4v1.8c0,.2,0,.3-.2.4s-.2.2-.4.2h-1.7c-2.9,0-5-1.2-6.6-3.5h0ZM287.2,882.7l-6.1-9.4c-1.3,1.1-2.3,2-2.9,2.8-.6.8-.9,1.7-.9,2.7,0,1.5.6,2.7,1.7,3.5,1.1.8,2.6,1.2,4.4,1.2s2.6-.2,3.7-.7h0ZM285.7,865.5c.6-.8,1-1.6,1-2.4s-.3-1.5-.9-2.1-1.3-.8-2.2-.8-1.7.3-2.3,1c-.6.7-.9,1.5-.9,2.7s.6,3.2,1.7,5.1c1.8-1.5,3-2.7,3.6-3.5h0Z"/>
          <path class="cls-8" d="M318.6,885c-1.5-.9-2.6-2.1-3.5-3.6s-1.3-3.1-1.3-4.9v-9.4c0-1.8.4-3.4,1.3-4.9s2-2.7,3.5-3.6,3.1-1.3,4.8-1.3,2.7.2,4,.7c1.2.5,2.3,1.2,3.2,2.1.1.1.2.3.2.5s0,.4-.2.5c-.6.6-.9,1-1.1,1.2-.2.1-.4.2-.6.2s-.4,0-.6-.3c-1.3-1.3-3-1.9-4.9-1.9s-2.2.3-3.2.9-1.7,1.4-2.3,2.5-.8,2.1-.8,3.3v9.4c0,1.2.3,2.3.8,3.3.6,1,1.3,1.8,2.3,2.5,1,.6,2,.9,3.2.9,2,0,3.6-.6,4.9-1.9.2-.2.4-.3.6-.3s.4,0,.6.2c.2.2.5.6,1.1,1.2.1.1.2.3.2.5s0,.3-.2.5c-.9.9-2,1.7-3.2,2.1s-2.5.7-4,.7-3.3-.4-4.8-1.3Z"/>
          <path class="cls-8" d="M340,885.2c-1.3-.8-2.4-1.8-3.2-3.2s-1.2-2.8-1.2-4.4v-6.2c0-1.6.4-3,1.2-4.4s1.8-2.4,3.2-3.2,2.8-1.2,4.4-1.2,3,.4,4.4,1.2c1.3.8,2.4,1.8,3.2,3.2s1.2,2.8,1.2,4.4v6.2c0,1.6-.4,3-1.2,4.4s-1.8,2.4-3.2,3.2c-1.3.8-2.8,1.2-4.4,1.2s-3-.4-4.4-1.2ZM347.2,882.6c.9-.5,1.5-1.2,2-2,.5-.8.7-1.8.7-2.8v-6.6c0-1-.2-2-.7-2.8s-1.2-1.5-2-2c-.9-.5-1.8-.7-2.8-.7s-2,.2-2.8.7c-.9.5-1.5,1.2-2,2-.5.8-.7,1.8-.7,2.8v6.6c0,1,.2,2,.7,2.8s1.2,1.5,2,2c.9.5,1.8.7,2.8.7s2-.2,2.8-.7Z"/>
          <path class="cls-8" d="M359.9,885.6c-.1-.1-.2-.2-.2-.4v-21.5c0-.2,0-.3.2-.4.1-.1.2-.2.4-.2h2c.2,0,.3,0,.4.2s.2.2.2.4v2.2c.6-1.1,1.5-1.9,2.5-2.4,1-.5,2.2-.8,3.5-.8s3.1.4,4.4,1.2,2.1,1.9,2.7,3.2c.6-1.4,1.4-2.5,2.6-3.2s2.5-1.1,4-1.1c2.3,0,4.1.7,5.5,2.1s2.1,3.2,2.1,5.5v15c0,.2,0,.3-.2.4s-.2.2-.4.2h-2c-.2,0-.3,0-.4-.2s-.2-.2-.2-.4v-14.4c0-1.7-.5-3-1.3-3.9-.9-.9-2.1-1.3-3.6-1.3s-3,.6-4,1.8-1.5,2.8-1.5,4.8v13c0,.2,0,.3-.2.4-.1.1-.2.2-.4.2h-2c-.2,0-.3,0-.4-.2s-.2-.2-.2-.4v-14.4c0-1.7-.5-3-1.3-3.9-.9-.9-2.1-1.3-3.6-1.3s-3,.6-4,1.8-1.5,2.8-1.5,4.8v13.1c0,.2,0,.3-.2.4-.1.1-.2.2-.4.2h-2c-.2,0-.3,0-.4-.2h0Z"/>
          <path class="cls-8" d="M397.2,885.6c-.1-.1-.2-.2-.2-.4v-21.5c0-.2,0-.3.2-.4.1-.1.2-.2.4-.2h2c.2,0,.3,0,.4.2s.2.2.2.4v2.2c.6-1.1,1.5-1.9,2.5-2.4s2.2-.8,3.5-.8,3.1.4,4.4,1.2,2.1,1.9,2.7,3.2c.6-1.4,1.4-2.5,2.6-3.2s2.5-1.1,4-1.1c2.3,0,4.1.7,5.5,2.1s2.1,3.2,2.1,5.5v15c0,.2,0,.3-.2.4-.1.1-.2.2-.4.2h-2c-.2,0-.3,0-.4-.2s-.2-.2-.2-.4v-14.4c0-1.7-.5-3-1.3-3.9-.9-.9-2.1-1.3-3.6-1.3s-3,.6-4,1.8-1.5,2.8-1.5,4.8v13c0,.2,0,.3-.2.4s-.2.2-.4.2h-2c-.2,0-.3,0-.4-.2s-.2-.2-.2-.4v-14.4c0-1.7-.5-3-1.3-3.9-.9-.9-2.1-1.3-3.6-1.3s-3,.6-4,1.8-1.5,2.8-1.5,4.8v13.1c0,.2,0,.3-.2.4-.1.1-.2.2-.4.2h-2c-.2,0-.3,0-.4-.2h0Z"/>
          <path class="cls-8" d="M436.4,884.2c-1.4-1.4-2.1-3.2-2.1-5.5v-15c0-.2,0-.3.2-.4.1-.1.2-.2.4-.2h2c.2,0,.3,0,.4.2s.2.2.2.4v14.4c0,1.7.5,3,1.4,3.9.9.9,2.1,1.4,3.6,1.4s3.2-.6,4.3-1.8,1.6-2.8,1.6-4.8v-13.1c0-.2,0-.3.2-.4.1-.1.2-.2.4-.2h2c.2,0,.3,0,.4.2s.2.2.2.4v21.5c0,.2,0,.3-.2.4-.1.1-.2.2-.4.2h-2c-.2,0-.3,0-.4-.2s-.2-.2-.2-.4v-2.2c-.7,1.1-1.6,1.9-2.7,2.5-1.1.6-2.4.8-3.7.8-2.3,0-4.1-.7-5.5-2.1Z"/>
          <path class="cls-8" d="M459.2,885.6c-.1-.1-.2-.2-.2-.4v-21.5c0-.2,0-.3.2-.4.1-.1.2-.2.4-.2h2c.2,0,.3,0,.4.2s.2.2.2.4v2.2c.7-1.1,1.6-1.9,2.7-2.5,1.1-.6,2.4-.8,3.7-.8,2.3,0,4.1.7,5.5,2.1s2.1,3.2,2.1,5.5v15c0,.2,0,.3-.2.4-.1.1-.2.2-.4.2h-2c-.2,0-.3,0-.4-.2s-.2-.2-.2-.4v-14.4c0-1.7-.5-3-1.3-3.9-.9-.9-2.1-1.3-3.6-1.3s-3.2.6-4.3,1.8-1.6,2.8-1.6,4.8v13.1c0,.2,0,.3-.2.4-.1.1-.2.2-.4.2h-2c-.2,0-.3,0-.4-.2Z"/>
          <path class="cls-8" d="M486.5,885.4c-.3-.3-.4-.6-.4-1v-18.2h-4.2c-.2,0-.3,0-.4-.2s-.2-.2-.2-.4v-1.8c0-.2,0-.3.2-.4.1-.1.2-.2.4-.2h5.8c.4,0,.7.1,1,.4.3.3.4.6.4,1v18.2h4.1c.2,0,.3,0,.4.2s.2.2.2.4v1.8c0,.2,0,.3-.2.4s-.2.2-.4.2h-5.8c-.4,0-.7-.1-1-.4ZM486.3,859.9c-.1-.1-.2-.2-.2-.4v-3.5c0-.2,0-.3.2-.4.1-.1.2-.2.4-.2h1.9c.2,0,.3,0,.4.2s.2.2.2.4v3.5c0,.2,0,.3-.2.4-.1.1-.2.2-.4.2h-1.9c-.2,0-.3,0-.4-.2Z"/>
          <path class="cls-8" d="M501.6,884.1c-1.1-1.2-1.6-2.6-1.6-4.4v-13.6h-2.6c-.2,0-.3,0-.4-.2s-.2-.2-.2-.4v-1.8c0-.2,0-.3.2-.4.1-.1.2-.2.4-.2h2.6v-4.2c0-.2,0-.3.2-.4.1-.1.2-.2.4-.2h2c.2,0,.3,0,.4.2s.2.2.2.4v4.2h7c.2,0,.3,0,.4.2s.2.2.2.4v1.8c0,.2,0,.3-.2.4-.1.1-.2.2-.4.2h-7v13.2c0,1,.3,1.9.9,2.5s1.5,1,2.5,1h3.6c.2,0,.3,0,.4.2s.2.2.2.4v1.8c0,.2,0,.3-.2.4-.1.1-.2.2-.4.2h-4c-1.9,0-3.4-.6-4.5-1.7h0Z"/>
          <path class="cls-8" d="M520.7,893.3c-.1-.2-.2-.4,0-.6l2.3-6.6-8-22s0-.2,0-.3,0-.3.2-.4.3-.2.5-.2h1.8c.2,0,.3,0,.5.1s.2.2.3.4l6.3,17.9,6.2-17.9c0-.2.2-.3.3-.4.2,0,.3-.1.5-.1h1.8c.2,0,.4,0,.5.3s.1.4,0,.6l-10.2,29c0,.2-.2.3-.3.4-.2,0-.3.1-.5.1h-1.6c-.2,0-.4,0-.6-.2h0Z"/>
          <path class="cls-8" d="M550.9,885.4c-.3-.3-.4-.6-.4-1v-24.9c0-.4.1-.7.4-1,.3-.3.6-.4,1-.4h13.2c.2,0,.3,0,.4.2s.2.2.2.4v2c0,.2,0,.3-.2.4s-.2.2-.4.2h-11.3v8.6h8.6c.2,0,.3,0,.4.2s.2.2.2.4v1.9c0,.2,0,.3-.2.4-.1.1-.2.2-.4.2h-8.6v10.1h11.3c.2,0,.3,0,.4.2s.2.2.2.4v2c0,.2,0,.3-.2.4-.1.1-.2.2-.4.2h-13.2c-.4,0-.7-.1-1-.4h0Z"/>
          <path class="cls-8" d="M574.5,885.2c-1.3-.8-2.3-1.8-3-3-.8-1.3-1.1-2.7-1.1-4.2v-7c0-1.5.4-2.9,1.1-4.2s1.8-2.3,3.1-3,2.7-1.1,4.2-1.1,2.2.2,3.2.6c1,.4,1.9,1,2.7,1.7v-8.9c0-.2,0-.3.2-.4.1-.1.2-.2.4-.2h2c.2,0,.3,0,.4.2.1.1.2.2.2.4v29.2c0,.2,0,.3-.2.4-.1.1-.2.2-.4.2h-1.8c-.2,0-.3,0-.4-.2-.1-.1-.2-.2-.2-.4v-1.8c-.8.9-1.7,1.6-2.7,2.1s-2.2.7-3.4.7-2.9-.4-4.2-1.1h0ZM581.8,882.6c.9-.5,1.5-1.2,2-2,.5-.8.7-1.8.7-2.8v-6.6c0-1-.2-2-.7-2.8s-1.2-1.5-2-2-1.8-.7-2.8-.7-2,.2-2.8.7-1.5,1.2-2,2c-.5.8-.7,1.8-.7,2.8v6.6c0,1,.2,2,.7,2.8s1.2,1.5,2,2c.8.5,1.8.7,2.8.7s2-.2,2.8-.7Z"/>
          <path class="cls-8" d="M598.7,885.4c-.3-.3-.4-.6-.4-1v-18.2h-4.2c-.2,0-.3,0-.4-.2s-.2-.2-.2-.4v-1.8c0-.2,0-.3.2-.4.1-.1.2-.2.4-.2h5.8c.4,0,.7.1,1,.4.3.3.4.6.4,1v18.2h4.1c.2,0,.3,0,.4.2.1.1.2.2.2.4v1.8c0,.2,0,.3-.2.4s-.2.2-.4.2h-5.8c-.4,0-.7-.1-1-.4h0ZM598.4,859.9c-.1-.1-.2-.2-.2-.4v-3.5c0-.2,0-.3.2-.4.1-.1.2-.2.4-.2h1.9c.2,0,.3,0,.4.2.1.1.2.2.2.4v3.5c0,.2,0,.3-.2.4-.1.1-.2.2-.4.2h-1.9c-.2,0-.3,0-.4-.2Z"/>
          <path class="cls-8" d="M613.7,884.1c-1.1-1.2-1.6-2.6-1.6-4.4v-13.6h-2.6c-.2,0-.3,0-.4-.2s-.2-.2-.2-.4v-1.8c0-.2,0-.3.2-.4.1-.1.2-.2.4-.2h2.6v-4.2c0-.2,0-.3.2-.4.1-.1.2-.2.4-.2h2c.2,0,.3,0,.4.2.1.1.2.2.2.4v4.2h7c.2,0,.3,0,.4.2.1.1.2.2.2.4v1.8c0,.2,0,.3-.2.4-.1.1-.2.2-.4.2h-7v13.2c0,1,.3,1.9.9,2.5s1.5,1,2.5,1h3.6c.2,0,.3,0,.4.2.1.1.2.2.2.4v1.8c0,.2,0,.3-.2.4-.1.1-.2.2-.4.2h-4c-1.9,0-3.4-.6-4.5-1.7h0Z"/>
          <path class="cls-8" d="M632.3,885.4c-.3-.3-.4-.6-.4-1v-18.2h-4.2c-.2,0-.3,0-.4-.2s-.2-.2-.2-.4v-1.8c0-.2,0-.3.2-.4.1-.1.2-.2.4-.2h5.8c.4,0,.7.1,1,.4.3.3.4.6.4,1v18.2h4.1c.2,0,.3,0,.4.2.1.1.2.2.2.4v1.8c0,.2,0,.3-.2.4s-.2.2-.4.2h-5.8c-.4,0-.7-.1-1-.4h0ZM632.1,859.9c-.1-.1-.2-.2-.2-.4v-3.5c0-.2,0-.3.2-.4.1-.1.2-.2.4-.2h1.9c.2,0,.3,0,.4.2.1.1.2.2.2.4v3.5c0,.2,0,.3-.2.4-.1.1-.2.2-.4.2h-1.9c-.2,0-.3,0-.4-.2Z"/>
          <path class="cls-8" d="M648,885.2c-1.3-.8-2.4-1.8-3.2-3.2-.8-1.3-1.2-2.8-1.2-4.4v-6.2c0-1.6.4-3,1.2-4.4.8-1.3,1.8-2.4,3.2-3.2,1.3-.8,2.8-1.2,4.4-1.2s3,.4,4.4,1.2,2.4,1.8,3.2,3.2c.8,1.3,1.2,2.8,1.2,4.4v6.2c0,1.6-.4,3-1.2,4.4-.8,1.3-1.8,2.4-3.2,3.2-1.3.8-2.8,1.2-4.4,1.2s-3-.4-4.4-1.2ZM655.2,882.6c.8-.5,1.5-1.2,2-2,.5-.8.7-1.8.7-2.8v-6.6c0-1-.2-2-.7-2.8s-1.2-1.5-2-2c-.8-.5-1.8-.7-2.8-.7s-2,.2-2.8.7-1.5,1.2-2,2c-.5.8-.7,1.8-.7,2.8v6.6c0,1,.2,2,.7,2.8s1.2,1.5,2,2c.8.5,1.8.7,2.8.7s2-.2,2.8-.7Z"/>
          <path class="cls-8" d="M667.8,885.6c-.1-.1-.2-.2-.2-.4v-21.5c0-.2,0-.3.2-.4.1-.1.2-.2.4-.2h2c.2,0,.3,0,.4.2.1.1.2.2.2.4v2.2c.7-1.1,1.6-1.9,2.7-2.5s2.3-.8,3.7-.8c2.3,0,4.1.7,5.5,2.1s2.1,3.2,2.1,5.5v15c0,.2,0,.3-.2.4-.1.1-.2.2-.4.2h-2c-.2,0-.3,0-.4-.2-.1-.1-.2-.2-.2-.4v-14.4c0-1.7-.5-3-1.3-3.9s-2.1-1.3-3.6-1.3-3.2.6-4.3,1.8-1.6,2.8-1.6,4.8v13.1c0,.2,0,.3-.2.4-.1.1-.2.2-.4.2h-2c-.2,0-.3,0-.4-.2h0Z"/>
        </g>
      </g>
    </g>
    <path class="cls-11" d="M470.2,315.8v40.1"/>
    <path class="cls-11" d="M365.6,1031v80.3"/>
    <path class="cls-11" d="M587.7,1031v80.3"/>
    <path class="cls-11" d="M803.6,1031v80.3"/>
    <path class="cls-11" d="M595.8,1328.4l38.4,52.6"/>
    <g>
      <line class="cls-11" x1="750.2" y1="1381" x2="753.8" y2="1376.2"/>
      <line class="cls-14" x1="760" y1="1367.6" x2="782" y2="1337.6"/>
      <line class="cls-11" x1="785.1" y1="1333.3" x2="788.7" y2="1328.4"/>
    </g>
    <path class="cls-11" d="M159.4,1031v80.3"/>
    <rect class="cls-1" x=".5" y="373.4" width="956.1" height="90.7"/>
    <g>
      <path class="cls-8" d="M63.1,433.8c-.2-.2-.3-.4-.3-.7v-13.8l-9.5-15.9c-.1-.1-.2-.3-.2-.6s.1-.5.3-.7.5-.3.8-.3h3.7c.4,0,.7.2.9.5l6.7,11.6h0l6.7-11.6c.2-.3.5-.5.9-.5h3.7c.3,0,.6.1.8.3.2.2.3.4.3.7s0,.4-.2.6l-9.5,15.9v13.8c0,.3,0,.5-.3.7-.2.2-.4.3-.7.3h-3.6c-.3,0-.5,0-.7-.3h0Z"/>
      <path class="cls-8" d="M86.5,433c-1.8-1.1-3.3-2.5-4.3-4.3-1.1-1.8-1.6-3.8-1.6-6v-9.6c0-2.2.5-4.1,1.6-6,1.1-1.8,2.5-3.2,4.3-4.3,1.8-1.1,3.8-1.6,6-1.6s4.2.5,6,1.6,3.3,2.5,4.3,4.3,1.6,3.8,1.6,6v9.6c0,2.2-.5,4.1-1.6,6-1.1,1.8-2.5,3.2-4.3,4.3-1.8,1.1-3.8,1.6-6,1.6s-4.2-.5-6-1.6ZM95.7,428.5c1-.6,1.8-1.4,2.4-2.4s.9-2.1.9-3.3v-9.6c0-1.2-.3-2.3-.9-3.3-.6-1-1.4-1.8-2.4-2.4s-2.1-.9-3.2-.9-2.2.3-3.2.9c-1,.6-1.8,1.4-2.4,2.4s-.9,2.1-.9,3.3v9.6c0,1.2.3,2.3.9,3.3.6,1,1.4,1.8,2.4,2.4s2.1.9,3.2.9,2.2-.3,3.2-.9Z"/>
      <path class="cls-8" d="M116.8,433c-1.8-1.1-3.2-2.6-4.3-4.6-1-1.9-1.6-4.1-1.6-6.5v-19c0-.3,0-.5.3-.7.2-.2.4-.3.7-.3h3.6c.3,0,.5,0,.7.3s.3.4.3.7v19.3c0,2.2.6,3.9,1.8,5.2s2.8,2,4.7,2,3.5-.7,4.7-2c1.2-1.3,1.8-3.1,1.8-5.2v-19.3c0-.3,0-.5.3-.7.2-.2.4-.3.7-.3h3.6c.3,0,.5,0,.7.3.2.2.3.4.3.7v19c0,2.4-.5,4.6-1.6,6.6-1,2-2.5,3.5-4.3,4.6-1.8,1.1-3.8,1.6-6.1,1.6s-4.3-.6-6.1-1.7h0Z"/>
      <path class="cls-8" d="M142.3,433.8c-.2-.2-.3-.4-.3-.7v-29.3c0-.5.2-1,.6-1.4s.8-.6,1.4-.6h8.4c1.8,0,3.5.4,5,1.3,1.5.9,2.8,2.1,3.6,3.6s1.4,3.1,1.4,4.9-.6,4.1-1.9,5.8c-1.3,1.7-3,2.9-5,3.5l7.5,11.6c.1.2.2.4.2.6s-.1.5-.3.7c-.2.2-.4.3-.7.3h-3.7c-.5,0-.9-.2-1.2-.6l-7.5-12h-2.2v11.7c0,.3,0,.5-.3.7s-.4.3-.7.3h-3.6c-.3,0-.5,0-.7-.3h0ZM152.1,416.2c1.4,0,2.5-.4,3.4-1.3.9-.9,1.3-1.9,1.3-3.3s-.4-2.5-1.3-3.3-2-1.3-3.4-1.3h-4.6v9.2h4.6Z"/>
      <path class="cls-8" d="M187.2,433.8c-.1-.1-.1-.3,0-.5l7.6-23.1c0-.1.1-.2.3-.3.1,0,.3-.1.4-.1h2.3c.1,0,.3,0,.4.1s.2.2.3.3l7.6,23.1s0,.1,0,.2,0,.3-.2.4c-.1.1-.2.2-.4.2h-1.7c-.1,0-.3,0-.4-.1-.1,0-.2-.2-.3-.3l-2-6.1h-9.1l-2,6.1c0,.1-.1.2-.2.3-.1,0-.3.1-.4.1h-1.7c-.2,0-.4,0-.5-.2h0ZM200.3,425l-3.8-11.6-3.7,11.6h7.5Z"/>
      <path class="cls-8" d="M209.6,433.7c-.2-.3-.3-.5-.3-.9s0-.4.1-.6l9.6-15.4h-8.9c-.1,0-.3,0-.4-.1s-.1-.2-.1-.4v-1.6c0-.1,0-.3.1-.4s.2-.1.4-.1h11.3c.3,0,.6.1.8.4.2.3.3.5.3.8s0,.4-.2.6l-9.6,15.4h9.4c.1,0,.3,0,.4.1,0,0,.1.2.1.4v1.6c0,.1,0,.3-.1.4s-.2.1-.4.1h-11.9c-.3,0-.6-.1-.8-.4h0Z"/>
      <path class="cls-8" d="M229,432.7c-1.2-1.2-1.8-2.8-1.8-4.8v-13.2c0-.1,0-.3.1-.4s.2-.1.4-.1h1.8c.1,0,.3,0,.4.1,0,0,.1.2.1.4v12.6c0,1.5.4,2.6,1.2,3.4.8.8,1.8,1.2,3.1,1.2s2.8-.5,3.8-1.5c1-1,1.4-2.4,1.4-4.2v-11.4c0-.1,0-.3.1-.4s.2-.1.4-.1h1.8c.1,0,.3,0,.4.1,0,0,.1.2.1.4v18.8c0,.1,0,.3-.1.4s-.2.1-.4.1h-1.8c-.1,0-.3,0-.4-.1,0,0-.1-.2-.1-.4v-2c-.6,1-1.4,1.7-2.4,2.2-1,.5-2.1.7-3.3.7-2,0-3.6-.6-4.8-1.8h0Z"/>
      <path class="cls-8" d="M247.2,433.9c0,0-.1-.2-.1-.4v-1.6c0-.1,0-.3.1-.4s.2-.1.4-.1h2.9v-14.7h-2.9c-.1,0-.3,0-.4-.1,0,0-.1-.2-.1-.4v-1.5c0-.1,0-.3.1-.4s.2-.1.4-.1h4.4c.4,0,.6.1.9.4s.4.5.4.9v1.8l2-1.6c.8-.6,1.5-1.1,2.1-1.3.5-.2,1.1-.3,1.7-.3h1c.2,0,.3,0,.4.1,0,0,.1.2.1.4v1.7c0,.1,0,.3-.1.4s-.2.1-.4.1h-.8c-.6,0-1.1.1-1.6.4s-1.3.8-2.3,1.6l-2.1,1.6v11.1h4.1c.1,0,.3,0,.4.1,0,0,.1.2.1.4v1.6c0,.1,0,.3-.1.4s-.2.1-.4.1h-9.7c-.1,0-.3,0-.4-.1h0Z"/>
      <path class="cls-8" d="M267,433c-1.2-.7-2.1-1.6-2.8-2.8-.7-1.2-1-2.5-1-3.8v-5c0-1.4.3-2.6,1-3.8s1.6-2.1,2.8-2.8c1.2-.7,2.4-1,3.8-1s2.6.3,3.8,1c1.2.7,2.1,1.6,2.8,2.8s1,2.5,1,3.8v2.4c0,.4-.1.6-.4.9-.2.2-.5.4-.9.4h-11.2v1.5c0,.9.2,1.7.6,2.5s1,1.3,1.8,1.8,1.6.6,2.5.6h5.1c.1,0,.3,0,.4.1,0,0,.1.2.1.4v1.6c0,.1,0,.3-.1.4s-.2.1-.4.1h-5.1c-1.4,0-2.6-.3-3.8-1h0ZM275.7,422.5v-1.3c0-.9-.2-1.7-.6-2.5s-1-1.3-1.8-1.8-1.6-.6-2.5-.6-1.7.2-2.5.6-1.3,1-1.8,1.8-.6,1.6-.6,2.5v1.3h9.7Z"/>
      <path class="cls-8" d="M298.1,433.9c0,0-.1-.2-.1-.4v-21.1h-6.1c-.1,0-.3,0-.4-.1,0,0-.1-.2-.1-.4v-1.7c0-.1,0-.3.1-.4s.2-.1.4-.1h15c.1,0,.3,0,.4.1s.1.2.1.4v1.7c0,.1,0,.3-.1.4,0,0-.2.1-.4.1h-6v21.1c0,.1,0,.3-.1.4,0,0-.2.1-.4.1h-1.9c-.1,0-.3,0-.4-.1h0Z"/>
      <path class="cls-8" d="M312.9,433c-1.2-.7-2.1-1.6-2.8-2.8s-1-2.5-1-3.8v-5c0-1.4.3-2.6,1-3.8.7-1.2,1.6-2.1,2.8-2.8,1.2-.7,2.4-1,3.8-1s2.6.3,3.8,1c1.2.7,2.1,1.6,2.8,2.8.7,1.2,1,2.5,1,3.8v2.4c0,.4-.1.6-.4.9s-.5.4-.9.4h-11.2v1.5c0,.9.2,1.7.6,2.5s1,1.3,1.8,1.8,1.6.6,2.5.6h5.1c.1,0,.3,0,.4.1s.1.2.1.4v1.6c0,.1,0,.3-.1.4,0,0-.2.1-.4.1h-5.1c-1.4,0-2.6-.3-3.8-1h0ZM321.6,422.5v-1.3c0-.9-.2-1.7-.6-2.5s-1-1.3-1.8-1.8-1.6-.6-2.5-.6-1.7.2-2.5.6-1.3,1-1.8,1.8-.6,1.6-.6,2.5v1.3h9.7Z"/>
      <path class="cls-8" d="M329.6,433.9c0,0-.1-.2-.1-.4v-18.8c0-.1,0-.3.1-.4s.2-.1.4-.1h1.8c.1,0,.3,0,.4.1,0,0,.1.2.1.4v1.9c.6-1,1.4-1.7,2.4-2.2,1-.5,2.1-.7,3.3-.7,2,0,3.6.6,4.8,1.8,1.2,1.2,1.8,2.8,1.8,4.8v13.2c0,.1,0,.3-.1.4,0,0-.2.1-.4.1h-1.8c-.1,0-.3,0-.4-.1,0,0-.1-.2-.1-.4v-12.6c0-1.5-.4-2.6-1.2-3.4s-1.8-1.2-3.2-1.2-2.8.5-3.8,1.5-1.4,2.4-1.4,4.2v11.5c0,.1,0,.3-.1.4s-.2.1-.4.1h-1.8c-.1,0-.3,0-.4-.1h0Z"/>
      <path class="cls-8" d="M350.6,433c-1.1-1-1.7-2.4-1.7-4s.5-2.8,1.6-3.8,2.5-1.6,4.4-1.9l4.5-.6c.7,0,1.2-.3,1.5-.7s.5-.9.5-1.6v-.3c0-1.1-.4-2-1.3-2.7-.9-.7-2-1-3.3-1s-1.9.2-2.7.6c-.8.4-1.4,1-1.8,1.7-.2.3-.4.5-.7.5s-.3,0-.5-.2l-1-.6c-.2-.2-.3-.4-.3-.6s0-.2.1-.4c.7-1.1,1.6-2,2.8-2.6s2.5-1,4.1-1,2.6.3,3.8.8,1.9,1.3,2.5,2.2c.6,1,.9,2.1.9,3.3v13.4c0,.1,0,.3-.1.4s-.2.1-.4.1h-1.5c-.1,0-.3,0-.4-.1,0,0-.1-.2-.1-.4v-2.4c-.7,1-1.6,1.9-2.8,2.5s-2.4.9-3.7.9-3.3-.5-4.4-1.5h0ZM358.4,431.2c.9-.6,1.7-1.4,2.2-2.3s.8-1.8.8-2.7v-1.4c-.6,0-2.4.3-5.4.7h-1c-2.3.5-3.5,1.6-3.5,3.4s.4,1.7,1,2.3c.7.6,1.6.9,2.7.9s2.2-.3,3.1-.9h0Z"/>
      <path class="cls-8" d="M370,433.9c0,0-.1-.2-.1-.4v-18.8c0-.1,0-.3.1-.4s.2-.1.4-.1h1.8c.1,0,.3,0,.4.1,0,0,.1.2.1.4v1.9c.6-1,1.4-1.7,2.4-2.2,1-.5,2.1-.7,3.3-.7,2,0,3.6.6,4.8,1.8,1.2,1.2,1.8,2.8,1.8,4.8v13.2c0,.1,0,.3-.1.4s-.2.1-.4.1h-1.8c-.1,0-.3,0-.4-.1,0,0-.1-.2-.1-.4v-12.6c0-1.5-.4-2.6-1.2-3.4s-1.8-1.2-3.2-1.2-2.8.5-3.8,1.5-1.4,2.4-1.4,4.2v11.5c0,.1,0,.3-.1.4s-.2.1-.4.1h-1.8c-.1,0-.3,0-.4-.1h0Z"/>
      <path class="cls-8" d="M393,432.5c-1-1-1.4-2.3-1.4-3.8v-11.9h-2.3c-.1,0-.3,0-.4-.1,0,0-.1-.2-.1-.4v-1.6c0-.1,0-.3.1-.4s.2-.1.4-.1h2.3v-3.7c0-.1,0-.3.1-.4s.2-.1.4-.1h1.8c.1,0,.3,0,.4.1,0,0,.1.2.1.4v3.7h6.2c.1,0,.3,0,.4.1s.1.2.1.4v1.6c0,.1,0,.3-.1.4s-.2.1-.4.1h-6.2v11.5c0,.9.3,1.6.8,2.2.5.5,1.3.8,2.1.9h3.2c.1,0,.3,0,.4.2s.1.2.1.4v1.6c0,.1,0,.3-.1.4,0,0-.2.1-.4.1h-3.5c-1.7,0-3-.5-4-1.5h0Z"/>
    </g>
    <g id="UC-UC-Free-2">
      <rect class="cls-7" x="691.5" y="510.7" width="99.8" height="46"/>
      <path class="cls-6" d="M705.6,548.2c-.1-.1-.2-.2-.2-.4v-26.2c0-.4.1-.8.4-1s.6-.4,1-.4h6.8c1.6,0,3.1.4,4.5,1.2,1.4.8,2.4,1.8,3.2,3.2.8,1.3,1.2,2.8,1.2,4.4s-.4,3-1.2,4.4c-.8,1.3-1.8,2.3-3.2,3.2-1.4.8-2.8,1.2-4.5,1.2h-4.9v10.2c0,.2,0,.3-.2.4s-.2.2-.4.2h-2.2c-.2.1-.3,0-.4,0h0ZM713.4,534.6c1,0,2-.2,2.8-.8s1.5-1.2,2.1-2.1.8-1.8.8-2.8-.2-2-.8-2.8-1.2-1.5-2.1-2.1-1.8-.8-2.8-.8h-4.8v11.2h4.8Z"/>
      <path class="cls-6" d="M731.3,548.2c-.1-.1-.2-.2-.2-.4v-26.2c0-.4.1-.8.4-1s.6-.4,1-.4h7.1c1.5,0,2.9.3,4.1,1.1,1.3.8,2.2,1.7,3,3,.8,1.3,1.1,2.6,1.1,4.1s-.6,3.7-1.8,5.2c-1.3,1.5-2.8,2.4-4.7,2.8l6.7,10.8c0,.1.1.2.1.4s0,.4-.2.5c-.2.1-.3.2-.6.2h-2.1c-.3,0-.5-.1-.6-.3l-7.1-11.5h-3.2v11.2c0,.2,0,.3-.2.4s-.2.2-.4.2h-2.2c0,0-.2,0-.3-.2h0ZM739.4,533.4c1.4,0,2.7-.5,3.6-1.4,1-.9,1.4-2.1,1.4-3.6s-.5-2.7-1.4-3.7c-1-1-2.2-1.4-3.6-1.4h-4.9v10.1h4.9Z"/>
      <path class="cls-6" d="M762.2,547.6c-1.5-.9-2.8-2.1-3.6-3.6-.9-1.5-1.3-3.2-1.3-4.9v-9.5c0-1.8.5-3.4,1.3-4.9.9-1.5,2.1-2.7,3.6-3.6,1.5-.9,3.2-1.3,5-1.3s3.4.5,5,1.3c1.5.9,2.8,2.1,3.6,3.6.9,1.5,1.3,3.2,1.3,4.9v9.5c0,1.8-.5,3.4-1.3,4.9-.9,1.5-2.1,2.7-3.6,3.6-1.5.9-3.2,1.3-5,1.3s-3.5-.4-5-1.3ZM770.4,544.9c1-.6,1.8-1.4,2.4-2.5s.9-2.2.9-3.3v-9.5c0-1.2-.3-2.3-.9-3.3-.6-1-1.4-1.9-2.4-2.5-1-.6-2.1-.9-3.3-.9s-2.3.3-3.3.9-1.8,1.4-2.4,2.5-.9,2.2-.9,3.3v9.5c0,1.2.3,2.3.9,3.3.6,1,1.4,1.9,2.4,2.5,1,.6,2.1.9,3.3.9s2.3-.3,3.3-.9Z"/>
    </g>
    <g>
      <rect class="cls-5" x="819.3" y="511.2" width="65.3" height="44.9"/>
      <g class="cls-10">
        <g class="cls-10">
          <path class="cls-6" d="M835.5,547.3c-1.5-.9-2.6-2-3.4-3.5-.8-1.5-1.3-3.1-1.3-4.8v-9.3c0-1.7.4-3.4,1.3-4.8.8-1.5,2-2.7,3.4-3.5,1.5-.9,3-1.3,4.7-1.3s2.7.2,3.9.7c1.2.5,2.3,1.2,3.2,2.1.1.1.2.3.2.5s0,.4-.2.5c-.6.6-.9,1-1.1,1.2-.2.1-.4.2-.6.2s-.4,0-.6-.3c-1.3-1.3-2.9-1.9-4.9-1.9s-2.2.3-3.1.9c-1,.6-1.7,1.4-2.3,2.4s-.8,2.1-.8,3.3v9.3c0,1.2.3,2.2.8,3.3.6,1,1.3,1.8,2.3,2.4,1,.6,2,.9,3.1.9,1.9,0,3.5-.6,4.9-1.9.2-.2.4-.3.6-.3s.4,0,.6.2c.2.2.5.6,1.1,1.2.1.1.2.3.2.5s0,.3-.2.5c-.9.9-2,1.6-3.2,2.1-1.2.5-2.5.7-3.9.7s-3.3-.4-4.7-1.3Z"/>
        </g>
        <g class="cls-10">
          <path class="cls-6" d="M856.4,547.7c-.3-.3-.4-.6-.4-1v-24.7c0-.4.1-.7.4-1,.3-.3.6-.4,1-.4h13c.2,0,.3,0,.4.2s.2.2.2.4v1.9c0,.2,0,.3-.2.4-.1.1-.2.2-.4.2h-11.2v8.5h8.5c.2,0,.3,0,.4.2.1.1.2.2.2.4v1.9c0,.2,0,.3-.2.4-.1.1-.2.2-.4.2h-8.5v10h11.2c.2,0,.3,0,.4.2.1.1.2.2.2.4v1.9c0,.2,0,.3-.2.4s-.2.2-.4.2h-13c-.4,0-.7-.1-1-.4Z"/>
        </g>
      </g>
    </g>
    <g>
      <path id="Rectangle-3-2" class="cls-2" d="M480.7,1132.1h209v184.4h-209v-184.4h0Z"/>
      <g>
        <ellipse class="cls-13" cx="588.6" cy="1176.4" rx="28.5" ry="11.4"/>
        <path class="cls-13" d="M617.1,1176.4v51.4c0,6.3-12.8,11.4-28.5,11.4s-28.5-5.2-28.5-11.4v-51.4"/>
        <path class="cls-13" d="M617.1,1210.6c0,6.3-12.8,11.4-28.5,11.4s-28.5-5.2-28.5-11.4M617.1,1193.5c0,6.3-12.8,11.4-28.5,11.4s-28.5-5.2-28.5-11.4"/>
      </g>
    </g>
    <g>
      <g>
        <path id="Rectangle-4-2" class="cls-2" d="M47.8,1132.1h209v184.4H47.8v-184.4Z"/>
        <g>
          <path class="cls-8" d="M98.3,1289.8c-.2-.2-.3-.5-.3-.8v-17.6c0-.3.1-.6.3-.8.2-.2.5-.3.8-.3h9.6c.2,0,.3,0,.4.2s.2.2.2.4v2.1c0,.2,0,.3-.2.4s-.2.2-.4.2h-7.3v4.8h5.5c.2,0,.3,0,.4.2s.2.2.2.4v2c0,.2,0,.3-.2.4s-.2.2-.4.2h-5.5v5.5h7.3c.2,0,.3,0,.4.2s.2.2.2.4v2.1c0,.2,0,.3-.2.4s-.2.2-.4.2h-9.6c-.3,0-.6-.1-.8-.3h0Z"/>
          <path class="cls-8" d="M113.3,1290c-.1-.1-.2-.2-.2-.4v-14.9c0-.2,0-.3.2-.4s.2-.2.4-.2h2.2c.2,0,.3,0,.4.2s.2.2.2.4v1.3c.5-.7,1.1-1.3,1.9-1.7s1.5-.6,2.4-.6,2,.2,2.9.8c.8.5,1.5,1.2,2,2.1.5.9.7,1.9.7,3v9.9c0,.2,0,.3-.2.4s-.2.2-.4.2h-2.2c-.2,0-.3,0-.4-.2s-.2-.2-.2-.4v-9.5c0-1-.2-1.8-.8-2.3-.5-.5-1.2-.8-2.1-.8s-2,.4-2.6,1.1c-.6.7-1,1.7-1,2.9v8.6c0,.2,0,.3-.2.4s-.2.2-.4.2h-2.2c-.2,0-.3,0-.4-.2h0Z"/>
          <path class="cls-8" d="M132.9,1288.8c-.9-.9-1.4-2.1-1.4-3.5v-8h-1.9c-.2,0-.3,0-.4-.2s-.2-.2-.2-.4v-2c0-.2,0-.3.2-.4s.2-.2.4-.2h1.9v-3c0-.2,0-.3.2-.4s.2-.2.4-.2h2.2c.2,0,.3,0,.4.2s.2.2.2.4v3h4.7c.2,0,.3,0,.4.2s.2.2.2.4v2c0,.2,0,.3-.2.4s-.2.2-.4.2h-4.7v7.9c0,.6.2,1,.5,1.3.3.3.8.5,1.3.5h2.9c.2,0,.3,0,.4.2s.2.2.2.4v2c0,.2,0,.3-.2.4s-.2.2-.4.2h-3.2c-1.5,0-2.6-.4-3.5-1.3h0Z"/>
          <path class="cls-8" d="M143.3,1290c-.1-.1-.2-.2-.2-.4v-2.1c0-.2,0-.3.2-.4s.2-.2.4-.2h2.1v-9.6h-2.4c-.2,0-.3,0-.4-.2s-.2-.2-.2-.4v-2c0-.2,0-.3.2-.4s.2-.2.4-.2h4.3c.3,0,.6.1.9.3.2.2.4.5.4.8v1l1.5-1.2c.6-.4,1.1-.8,1.5-.9.4-.2.9-.3,1.5-.3h.9c.2,0,.3,0,.4.2s.2.2.2.4v2.2c0,.2,0,.3-.2.4s-.2.2-.4.2h-.7c-.5,0-.9,0-1.3.2-.4.2-.9.5-1.6,1.1l-1.5,1.2v7.1h2.8c.2,0,.3,0,.4.2s.2.2.2.4v2.1c0,.2,0,.3-.2.4s-.2.2-.4.2h-8.2c-.2,0-.3,0-.4-.2h0Z"/>
          <path class="cls-8" d="M158.1,1289.2c-1-.9-1.5-2-1.5-3.5s.4-2.4,1.3-3.2,2.2-1.4,3.8-1.7c.4,0,.8,0,1.2-.2,1.3-.2,2.1-.3,2.4-.3.7-.1,1-.5,1-1.2s-.3-1.2-.9-1.7-1.3-.6-2.1-.6c-1.5,0-2.6.6-3.3,1.7-.1.2-.3.4-.5.4s-.3,0-.4-.1l-1.6-1.1c-.2-.1-.2-.3-.2-.5s0-.1,0-.2c.5-1,1.3-1.8,2.4-2.4s2.3-.8,3.6-.8,2.3.2,3.2.7c.9.5,1.7,1.1,2.2,2s.8,1.8.8,3v10.2c0,.2,0,.3-.2.4s-.2.2-.4.2h-1.9c-.2,0-.3,0-.4-.2s-.2-.2-.2-.4v-1.1c-1.3,1.4-2.8,2-4.6,2s-2.8-.4-3.8-1.3h0ZM164.3,1287c.6-.4,1.2-.9,1.6-1.5s.6-1.2.6-1.9v-.6l-2.1.3c-1.1.1-1.9.2-2.2.3-1.5.3-2.3.9-2.3,2s.2,1,.6,1.4,1,.5,1.7.5,1.4-.2,2.1-.6h0Z"/>
          <path class="cls-8" d="M180.4,1290c-.1-.1-.2-.2-.2-.4v-1.9c0-.2,0-.3.2-.4s.2-.2.4-.2h2.4v-13.8h-2.4c-.2,0-.3,0-.4-.2s-.2-.2-.2-.4v-1.9c0-.2,0-.3.2-.4s.2-.2.4-.2h8.2c.2,0,.3,0,.4.2s.2.2.2.4v1.9c0,.2,0,.3-.2.4s-.2.2-.4.2h-2.4v13.8h2.4c.2,0,.3,0,.4.2s.2.2.2.4v1.9c0,.2,0,.3-.2.4s-.2.2-.4.2h-8.2c-.2,0-.3,0-.4-.2h0Z"/>
          <path class="cls-8" d="M193.8,1289.8c-.2-.2-.4-.5-.4-.8v-17.6c0-.3.1-.6.4-.8.2-.2.5-.3.9-.3h5.5c1.4,0,2.7.3,3.9,1,1.2.7,2.1,1.6,2.8,2.8.7,1.2,1,2.5,1,3.9v4.4c0,1.4-.3,2.8-1,3.9-.7,1.2-1.6,2.1-2.8,2.8s-2.5,1-3.9,1h-5.5c-.3,0-.6-.1-.9-.3h0ZM199.9,1286.9c.8,0,1.5-.2,2.2-.6.7-.4,1.2-.9,1.6-1.6s.6-1.4.6-2.2v-4.5c0-.8-.2-1.5-.6-2.2s-.9-1.2-1.6-1.6-1.4-.6-2.2-.6h-3.1v13.5h3.1Z"/>
        </g>
      </g>
      <path class="cls-8" d="M191.7,1208.1l-20.6-24.7h0c0,0,0,0,0,0l-9.7-11.7c-1.5-1.8-3.6-2.8-5.9-2.8h0c-2.3,0-4.4,1-5.9,2.8l-30.7,36.4c-1.5,1.7-2.1,4-1.8,6.3.3,2.2,1.5,4.3,3.4,5.6l30.7,21.3h0c1.3.9,2.9,1.4,4.4,1.4s3.1-.5,4.4-1.4l30.4-21.3c1.8-1.3,3-3.3,3.3-5.5.3-2.2-.4-4.5-1.8-6.3h0ZM120,1213.9c-.2-1.4.2-2.8,1.1-3.9l30.7-36.4c.9-1.1,2.2-1.7,3.5-1.7h0c1.4,0,2.6.6,3.5,1.7l7.2,8.7c-3.6-.1-7.8.9-10.9,4.8h0s-20.5,23.9-20.5,23.9l17.8,11.8c-7.9,5.4-9.7,6.4-14.1,5.9l-16.4-11.4c-1.1-.8-1.9-2-2-3.4h0ZM155.2,1220.8l-15.8-10.5,15.8-18.4,15.9,18.4-15.9,10.5ZM190.4,1213.9c-.2,1.4-.9,2.6-2,3.4l-30.4,21.3c-1.6,1.1-3.6,1.1-5.2,0h0l-10-6.9c3.4-.7,6.7-3,13.5-7.8,1-.7,2.2-1.5,3.4-2.4h0s16.1-10.6,16.1-10.6l-19.2-22.2.8.6c3.8-5.1,9.7-3.9,11.8-3.3l20.1,24.1c.9,1.1,1.3,2.5,1.1,3.8h0Z"/>
    </g>
    <g>
      <path class="cls-8" d="M527.6,1287.9c-.2-.2-.3-.5-.3-.8v-17.6c0-.3.1-.6.3-.8s.5-.3.8-.3h5.5c1.4,0,2.7.3,3.9,1,1.2.7,2.1,1.6,2.8,2.8.7,1.2,1,2.5,1,3.9v4.4c0,1.4-.3,2.8-1,3.9s-1.6,2.1-2.8,2.8-2.5,1-3.9,1h-5.5c-.3,0-.6-.1-.8-.3h0ZM533.8,1285c.8,0,1.5-.2,2.2-.6.7-.4,1.2-.9,1.6-1.6s.6-1.4.6-2.2v-4.5c0-.8-.2-1.5-.6-2.2s-.9-1.2-1.6-1.6-1.4-.6-2.2-.6h-3.1v13.5h3.1Z"/>
      <path class="cls-8" d="M545.9,1287.3c-1-.9-1.5-2-1.5-3.5s.5-2.4,1.3-3.2,2.2-1.4,3.8-1.7c.4,0,.8,0,1.2-.2,1.3-.2,2.1-.3,2.4-.3.7-.1,1-.5,1-1.2s-.3-1.2-.8-1.7-1.3-.6-2.1-.6c-1.5,0-2.6.6-3.3,1.7-.2.2-.3.4-.5.4s-.3,0-.4-.1l-1.6-1.1c-.2-.1-.2-.3-.2-.5s0-.1,0-.2c.5-1,1.3-1.8,2.4-2.4s2.3-.8,3.6-.8,2.3.2,3.2.7c.9.5,1.7,1.1,2.2,2s.8,1.8.8,3v10.2c0,.2,0,.3-.2.4s-.2.2-.4.2h-1.9c-.2,0-.3,0-.4-.2s-.2-.2-.2-.4v-1.1c-1.3,1.4-2.8,2-4.6,2s-2.8-.4-3.8-1.3h0ZM552,1285c.7-.4,1.2-.9,1.6-1.5s.6-1.2.6-1.9v-.6l-2.1.3c-1.1.1-1.9.2-2.2.3-1.5.3-2.3.9-2.3,2s.2,1,.6,1.4,1,.5,1.7.5,1.4-.2,2.1-.6h0Z"/>
      <path class="cls-8" d="M563.9,1286.9c-.9-.9-1.4-2.1-1.4-3.5v-8h-1.9c-.2,0-.3,0-.4-.2s-.2-.2-.2-.4v-2c0-.2,0-.3.2-.4s.2-.2.4-.2h1.9v-3c0-.2,0-.3.2-.4s.2-.2.4-.2h2.2c.2,0,.3,0,.4.2s.2.2.2.4v3h4.7c.2,0,.3,0,.4.2s.2.2.2.4v2c0,.2,0,.3-.2.4s-.2.2-.4.2h-4.7v7.9c0,.6.2,1,.5,1.3.3.3.8.5,1.3.5h2.9c.2,0,.3,0,.4.2s.2.2.2.4v2c0,.2,0,.3-.2.4s-.2.2-.4.2h-3.2c-1.5,0-2.6-.4-3.5-1.3h0Z"/>
      <path class="cls-8" d="M575,1287.3c-1-.9-1.5-2-1.5-3.5s.5-2.4,1.3-3.2,2.2-1.4,3.8-1.7c.4,0,.8,0,1.2-.2,1.3-.2,2.1-.3,2.4-.3.7-.1,1-.5,1-1.2s-.3-1.2-.8-1.7-1.3-.6-2.1-.6c-1.5,0-2.6.6-3.3,1.7-.2.2-.3.4-.5.4s-.3,0-.4-.1l-1.6-1.1c-.2-.1-.2-.3-.2-.5s0-.1,0-.2c.5-1,1.3-1.8,2.4-2.4s2.3-.8,3.6-.8,2.3.2,3.2.7c.9.5,1.7,1.1,2.2,2s.8,1.8.8,3v10.2c0,.2,0,.3-.2.4s-.2.2-.4.2h-1.9c-.2,0-.3,0-.4-.2s-.2-.2-.2-.4v-1.1c-1.3,1.4-2.8,2-4.6,2s-2.8-.4-3.8-1.3h0ZM581.2,1285c.7-.4,1.2-.9,1.6-1.5s.6-1.2.6-1.9v-.6l-2.1.3c-1.1.1-1.9.2-2.2.3-1.5.3-2.3.9-2.3,2s.2,1,.6,1.4,1,.5,1.7.5,1.4-.2,2.1-.6h0Z"/>
      <path class="cls-8" d="M595.5,1288.1c-.7-.4-1.3-.9-1.8-1.6v1.2c0,.2,0,.3-.2.4s-.2.2-.4.2h-1.8c-.2,0-.3,0-.4-.2s-.2-.2-.2-.4v-20.3c0-.2,0-.3.2-.4s.2-.2.4-.2h2.2c.2,0,.3,0,.4.2s.2.2.2.4v6.2c.5-.6,1-1,1.7-1.3.7-.3,1.3-.5,2.1-.5,1.1,0,2.2.3,3.1.9,1,.6,1.7,1.4,2.3,2.4s.8,2.1.8,3.2v3.9c0,1.1-.3,2.2-.8,3.2-.6,1-1.3,1.8-2.3,2.4-1,.6-2,.9-3.1.9s-1.6-.2-2.3-.6h0ZM599.8,1284.4c.6-.6,1-1.4,1-2.3v-3.7c0-.9-.3-1.7-1-2.3-.6-.6-1.4-1-2.3-1s-1.7.3-2.3,1c-.7.6-1,1.4-1,2.3v3.7c0,.9.3,1.7,1,2.3.7.6,1.4,1,2.3,1s1.7-.3,2.3-1Z"/>
      <path class="cls-8" d="M608.3,1287.3c-1-.9-1.5-2-1.5-3.5s.5-2.4,1.3-3.2,2.2-1.4,3.8-1.7c.4,0,.8,0,1.2-.2,1.3-.2,2.1-.3,2.4-.3.7-.1,1-.5,1-1.2s-.3-1.2-.8-1.7-1.3-.6-2.1-.6c-1.5,0-2.6.6-3.3,1.7-.2.2-.3.4-.5.4s-.3,0-.4-.1l-1.6-1.1c-.2-.1-.2-.3-.2-.5s0-.1,0-.2c.5-1,1.3-1.8,2.4-2.4s2.3-.8,3.6-.8,2.3.2,3.2.7c.9.5,1.7,1.1,2.2,2s.8,1.8.8,3v10.2c0,.2,0,.3-.2.4s-.2.2-.4.2h-1.9c-.2,0-.3,0-.4-.2s-.2-.2-.2-.4v-1.1c-1.3,1.4-2.8,2-4.6,2s-2.8-.4-3.8-1.3h0ZM614.5,1285c.7-.4,1.2-.9,1.6-1.5s.6-1.2.6-1.9v-.6l-2.1.3c-1.1.1-1.9.2-2.2.3-1.5.3-2.3.9-2.3,2s.2,1,.6,1.4,1,.5,1.7.5,1.4-.2,2.1-.6h0Z"/>
      <path class="cls-8" d="M625.7,1288.1c-.9-.3-1.8-.8-2.5-1.3,0,0-.2-.2-.2-.3,0-.1,0-.2,0-.3.1-.3.5-.9,1-1.8.2-.2.3-.3.6-.3s.3,0,.4.1c.7.5,1.3.8,1.9,1s1.2.3,1.9.3,1.4-.1,1.8-.4.6-.7.6-1.2-.2-.8-.5-1c-.3-.2-1-.6-2-.9l-1-.4c-.8-.3-1.5-.7-2.1-1-.6-.4-1.1-.9-1.5-1.5-.4-.6-.6-1.4-.6-2.4,0-1.5.5-2.7,1.5-3.5s2.3-1.3,3.9-1.3,1.9.2,2.8.5,1.7.7,2.4,1.3c0,0,.2.2.2.3,0,.1,0,.2,0,.3-.2.4-.5,1-.8,1.8-.1.2-.3.3-.5.3s-.3,0-.4-.1c-1.3-.8-2.5-1.3-3.6-1.3s-1.1.1-1.5.4c-.4.3-.5.7-.5,1.1s.2.9.6,1.2,1.2.7,2.3,1.1c1.1.4,1.9.8,2.5,1.1.6.3,1.1.8,1.6,1.4.5.6.7,1.4.7,2.4s-.2,1.8-.7,2.6c-.5.8-1.2,1.3-2.1,1.7-.9.4-1.9.6-3,.6s-2-.2-2.9-.5h0Z"/>
      <path class="cls-8" d="M640.8,1287.3c-1-.6-1.8-1.4-2.4-2.4-.6-1-.9-2.2-.9-3.4v-3c0-1.2.3-2.3.9-3.4.6-1,1.4-1.8,2.4-2.4,1-.6,2.1-.9,3.3-.9s2.3.3,3.3.9c1,.6,1.8,1.4,2.4,2.4.6,1,.9,2.2.9,3.4v1.9c0,.3-.1.6-.3.8s-.5.3-.8.3h-8.8c0,1.1.3,1.8,1,2.5.6.6,1.4,1,2.3,1h4.5c.2,0,.3,0,.4.2s.2.2.2.4v2c0,.2,0,.3-.2.4s-.2.2-.4.2h-4.5c-1.2,0-2.3-.3-3.3-.9h0ZM647.4,1278.6v-.2c0-.9-.3-1.7-1-2.3s-1.4-1-2.3-1-1.7.3-2.3,1-1,1.4-1,2.3v.2h6.6Z"/>
    </g>
  </g>
</svg>
