<svg width="300" height="300" viewBox="0 0 300 300" fill="none" xmlns="http://www.w3.org/2000/svg">
<path d="M157.56 274.343L38.0037 149.558C16.4108 128.041 11.1073 95.1595 24.7449 67.96C42.1708 32.9567 84.6747 18.8645 119.678 36.2903C126.497 39.6998 132.71 44.1699 138.089 49.5492L157.636 69.0964L177.183 49.5492C204.837 21.8951 249.614 21.8951 277.268 49.5492C282.648 54.9284 287.118 61.1411 290.527 67.96C304.165 95.1595 298.786 128.117 277.268 149.634L157.56 274.343Z" fill="#E44418"/>
<path d="M142.331 272.479L22.6988 147.77C1.18168 126.253 -4.12184 93.3714 9.44003 66.0962C26.9417 31.1687 69.4456 17.0007 104.373 34.5023C111.192 37.9117 117.405 42.3818 122.784 47.7611L142.331 67.3084L161.878 47.7611C189.533 20.107 234.309 20.107 261.963 47.7611C267.343 53.1404 271.813 59.3531 275.222 66.1719C288.86 93.3714 283.481 126.329 261.963 147.846L142.331 272.479Z" stroke="#000520" stroke-width="4" stroke-linecap="round" stroke-linejoin="round"/>
</svg>
